<svg xmlns="http://www.w3.org/2000/svg" width="53" height="48" viewBox="0 0 53 48"><title>phone-icon</title><path d="M34.58,34.68a21.9,21.9,0,0,1-2.1,1.77l3.85,3.83,1.54,1.53a16.81,16.81,0,0,0,1.4-2.44,0,0,0,0,0,0,0Z" transform="translate(0 0)" style="fill:none"/><path d="M11.61,15.7a16.75,16.75,0,0,1,1.79-2v-.06L8.72,9a14.26,14.26,0,0,0-2.5,1.38l.22.22Z" transform="translate(0 0)" style="fill:none"/><path d="M30,37.53c-7.11,0-19.5-12.33-19.5-19.4a2,2,0,0,1,0-.37L4.47,11.7C3,13,2.21,14.33,2.21,15.46c0,4.79,4.43,12.29,11.29,19.11S27.9,45.8,32.71,45.8c1.13,0,2.46-.79,3.78-2.25L30.4,37.5A2,2,0,0,1,30,37.53Z" transform="translate(0 0)" style="fill:none"/><path d="M36.65,2.2c-7.8,0-14.14,4.38-14.14,9.75,0,3.32,2.45,6.38,6.54,8.2a1.1,1.1,0,0,1,.65,1v2.91L33,21.7a1.11,1.11,0,0,1,.8-.19,20.2,20.2,0,0,0,2.81.2c7.8,0,14.14-4.38,14.14-9.75S44.45,2.2,36.65,2.2Zm-5.71,4H42.37a1.1,1.1,0,1,1,0,2.2H30.94a1.1,1.1,0,1,1,0-2.2ZM42.37,17.53H30.94a1.1,1.1,0,1,1,0-2.2H42.37a1.1,1.1,0,1,1,0,2.2Zm3.72-4.59H27.22a1.1,1.1,0,1,1,0-2.2H46.09a1.1,1.1,0,1,1,0,2.2Z" transform="translate(0 0)" style="fill:none"/><path d="M36.14,33.13a2.07,2.07,0,0,0-1.62-.66,2.23,2.23,0,0,0-1.59.68,11.23,11.23,0,0,1-2.68,2.09h0l-.23.09c-5.82,0-17.29-11.42-17.29-17.17a1.26,1.26,0,0,1,.1-.26h0a11.16,11.16,0,0,1,2.1-2.66,2.2,2.2,0,0,0,.69-1.58A2.22,2.22,0,0,0,15,12.05L10.29,7.41a2.24,2.24,0,0,0-2.5-.47A20,20,0,0,0,3.85,9.35h0C1.33,11.33,0,13.44,0,15.46c0,6.48,6.17,14.92,11.94,20.66S26.19,48,32.71,48c2,0,4.16-1.32,6.15-3.83h0a19.9,19.9,0,0,0,2.43-3.92h0a2.22,2.22,0,0,0-.47-2.48ZM8.72,9l4.67,4.64v.06a16.75,16.75,0,0,0-1.79,2L6.44,10.56l-.22-.22A14.26,14.26,0,0,1,8.72,9Zm24,36.84c-4.81,0-12.36-4.41-19.21-11.23S2.21,20.25,2.21,15.46c0-1.13.8-2.44,2.26-3.76l6.09,6.06a2,2,0,0,0,0,.37c0,7.07,12.4,19.4,19.5,19.4a2,2,0,0,0,.37,0l6.09,6.06C35.17,45,33.85,45.8,32.71,45.8Zm5.15-4-1.54-1.53-3.85-3.83a21.9,21.9,0,0,0,2.1-1.77l4.67,4.64a0,0,0,0,1,0,0A16.81,16.81,0,0,1,37.86,41.81Z" transform="translate(0 0)" style="fill:#fff"/><path d="M36.65,0c-9,0-16.35,5.36-16.35,11.95,0,4,2.68,7.68,7.2,9.9V26.2a1.11,1.11,0,0,0,1.75.89L34,23.74a22.43,22.43,0,0,0,2.68.16c9,0,16.35-5.36,16.35-11.95S45.67,0,36.65,0Zm0,21.7a20.2,20.2,0,0,1-2.81-.2,1.11,1.11,0,0,0-.8.19l-3.33,2.36V21.15a1.1,1.1,0,0,0-.65-1c-4.1-1.82-6.54-4.89-6.54-8.2,0-5.38,6.34-9.75,14.14-9.75s14.14,4.38,14.14,9.75S44.45,21.7,36.65,21.7Z" transform="translate(0 0)" style="fill:#fff"/><path d="M46.09,10.74H27.22a1.1,1.1,0,1,0,0,2.2H46.09a1.1,1.1,0,1,0,0-2.2Z" transform="translate(0 0)" style="fill:#fff"/><path d="M30.94,8.35H42.37a1.1,1.1,0,1,0,0-2.2H30.94a1.1,1.1,0,1,0,0,2.2Z" transform="translate(0 0)" style="fill:#fff"/><path d="M42.37,15.33H30.94a1.1,1.1,0,1,0,0,2.2H42.37a1.1,1.1,0,1,0,0-2.2Z" transform="translate(0 0)" style="fill:#fff"/></svg>