<svg xmlns="http://www.w3.org/2000/svg" width="222" height="94" viewBox="0 0 222 94"><title>404</title><path d="M57.58,2.08H39.34A162.31,162.31,0,0,0,27.69,15.21q-5.82,7.28-11.13,15T7.12,45Q2.85,52.14,0,57.86V72H38.69V92.18H57.58V72h9.58V56.17H57.58ZM38.69,56.17H18.37a99.19,99.19,0,0,1,9.58-16q5.69-7.8,10.74-14.43Z" style="fill:#fff"/><path d="M111.58,0A28.26,28.26,0,0,0,98.25,3.12,29.17,29.17,0,0,0,88,12.22a45.13,45.13,0,0,0-6.6,14.69,82.14,82.14,0,0,0-2.2,20q0,22.75,8.54,35T111.58,94q15.14,0,23.68-12.09t8.67-35q0-22.62-8.67-34.71T111.58,0Zm12,59.29a44.49,44.49,0,0,1-2.07,9.62,14.83,14.83,0,0,1-3.88,6.24,9.47,9.47,0,0,1-12.16,0,16.76,16.76,0,0,1-3.88-6.24,44.45,44.45,0,0,1-2.07-9.62,108,108,0,0,1-.65-12.35,104.58,104.58,0,0,1,.65-12.22,44.45,44.45,0,0,1,2.07-9.62,16.76,16.76,0,0,1,3.88-6.24,9.47,9.47,0,0,1,12.16,0,14.83,14.83,0,0,1,3.88,6.24,44.49,44.49,0,0,1,2.07,9.62,104.66,104.66,0,0,1,.65,12.22A108.08,108.08,0,0,1,123.62,59.29Z" style="fill:#fff"/><path d="M212.42,56.17V2.08H194.18a162.29,162.29,0,0,0-11.65,13.13q-5.82,7.28-11.13,15T162,45q-4.27,7.15-7.12,12.87V72h38.69V92.18h18.89V72H222V56.17Zm-18.89,0H173.22a99.24,99.24,0,0,1,9.58-16q5.69-7.8,10.74-14.43Z" style="fill:#fff"/></svg>