<svg xmlns="http://www.w3.org/2000/svg" xmlns:xlink="http://www.w3.org/1999/xlink" width="2027" height="490.67" viewBox="0 0 2027 490.67"><defs><linearGradient id="a" x1="111.09" y1="352.46" x2="320.56" y2="204.19" gradientTransform="matrix(1, 0, 0, -1, 0, 512)" gradientUnits="userSpaceOnUse"><stop offset="0" stop-color="#2eb3ee"/><stop offset="1" stop-color="#42c5ff"/></linearGradient></defs><title>belmont-logo</title><path d="M213.38,328.09l92.83-47.44-92.83-47,92.83-47-91.26-47-89.68,47v94.09Z" style="fill:url(#a)"/><polygon points="0 24.53 0 434.59 93.95 385.52 90.47 73.6 0 24.53" style="fill:#333"/><polygon points="125.27 373.12 125.27 469.64 306.2 373.12 306.2 280.65 213.38 328.09 125.27 373.12" style="fill:#333"/><polygon points="125.27 0 125.27 93.28 214.95 139.51 306.2 186.56 306.2 93.28 125.27 0" style="fill:#333"/><path d="M125.27,51.22,174,76.33l-3.48-11L125.27,42.06Zm73.07,28.51,3.48,11L247.05,114l-3.48-11ZM306.2,144.5l-29.58-15.25-1.74-10.06,31.32,16.15Z" style="fill:#fff"/><path d="M191.38,392.31,233.13,370l3.48-11-41.76,21.78Zm-34.8,18.56,4.47-12.47-35.78,18.66v10.51ZM306.2,331.06l-38.28,20.42,3.48-10.62,34.8-18.15Z" style="fill:#fff"/><polygon points="41.76 196.27 48.72 203.28 48.72 161.22 41.76 154.21 41.76 196.27" style="fill:#fff"/><polygon points="41.76 77.1 41.76 119.16 48.72 126.17 48.72 84.11 41.76 77.1" style="fill:#fff"/><polygon points="41.76 273.37 48.72 280.38 48.72 238.32 41.76 231.31 41.76 273.37" style="fill:#fff"/><polygon points="41.76 350.48 48.72 357.49 48.72 315.43 41.76 308.42 41.76 350.48" style="fill:#fff"/><polygon points="41.76 413.56 48.72 410.06 48.72 392.53 41.76 385.52 41.76 413.56" style="fill:#fff"/><path d="M462.82,135.11v72.37H547v32.77H462.82V307H571V348.2H410.27V93.93H571v41.18Z" style="fill:#333"/><path d="M794.67,305.44V348.2H644.88V93.93h52.19V305.44Z" style="fill:#333"/><path d="M1139.84,93.93V348.2h-46.11V192.06q0-4.91.17-10.51c.24-3.74.58-7.54,1-11.39l-72.2,137.91q-5.93,11.39-18.27,11.39h-7.31a20.64,20.64,0,0,1-10.79-2.8,20.85,20.85,0,0,1-7.48-8.59L906.35,169.63q.52,6.13.87,11.92.35,5.61.35,10.51V348.2h-46.1V93.93h39.67q3.31,0,5.92.18a12.9,12.9,0,0,1,4.52,1.05,8.46,8.46,0,0,1,3.65,2.45,16.44,16.44,0,0,1,3.3,4.56L989.17,237.8q3.31,6.13,6.09,12.62,3,6.48,5.56,13.32,2.61-7,5.4-13.67,3-6.66,6.26-12.79l70.12-135.11a16.33,16.33,0,0,1,3.3-4.56,10.12,10.12,0,0,1,3.65-2.45,14.3,14.3,0,0,1,4.53-1.05q2.61-.18,6.09-.18Z" style="fill:#333"/><path d="M1471.15,221a139.78,139.78,0,0,1-9.39,51.7,119.65,119.65,0,0,1-26.27,41.18,121.57,121.57,0,0,1-40.71,27.34q-23.84,9.81-52.89,9.81T1289,341.19a123.57,123.57,0,0,1-40.89-27.34,121.54,121.54,0,0,1-26.44-41.18,142,142,0,0,1-9.23-51.7,140.6,140.6,0,0,1,9.23-51.52A119.33,119.33,0,0,1,1289,101.11q23.84-10,52.89-10t52.89,10a118.21,118.21,0,0,1,40.71,27.34,119.65,119.65,0,0,1,26.27,41.18A137.93,137.93,0,0,1,1471.15,221Zm-53.41,0q0-20-5.22-35.75a74.43,74.43,0,0,0-15.13-27,62.55,62.55,0,0,0-23.84-17q-13.92-6-31.66-6t-31.84,6a64,64,0,0,0-24,17,75.78,75.78,0,0,0-15,27q-5.22,15.77-5.22,35.75,0,20.15,5.22,36.1a76,76,0,0,0,15,26.81,66.72,66.72,0,0,0,24,17q14.08,5.78,31.84,5.78t31.66-5.78a65.16,65.16,0,0,0,23.84-17,74.62,74.62,0,0,0,15.13-26.81Q1417.74,241.13,1417.74,221Z" style="fill:#333"/><path d="M1760.32,93.93V348.2h-27a24.47,24.47,0,0,1-10.27-1.93,25.94,25.94,0,0,1-8.17-7L1589.13,178q.52,6.13.69,12.09c.24,4,.35,7.65.35,11v147h-46.1V93.93h27.49a37,37,0,0,1,5.56.35,10.43,10.43,0,0,1,4.35,1.23,14.3,14.3,0,0,1,3.66,2.45,35.53,35.53,0,0,1,3.82,4.21l126.66,168.93c-.46-4.44-.81-15.71-1-19.8s-.35-8.18-.35-11.92V93.93Z" style="fill:#333"/><path d="M2026.67,136.34H1952.9V348.2h-52.37V136.34h-73.77V93.93h199.91Z" style="fill:#333"/><g style="opacity:0.8999999761581421"><path d="M1544.95,490.67V434.59h10v46.28h38.36v9.8Z" style="fill:#383838"/><path d="M1634.3,490.67a28,28,0,0,1-11.06-2.16,28.82,28.82,0,0,1-8.79-6,28.33,28.33,0,0,1-5.8-9.1,31,31,0,0,1-2-11.34,30,30,0,0,1,2-11.26,25.25,25.25,0,0,1,5.8-8.64,25.91,25.91,0,0,1,8.79-5.55,29.93,29.93,0,0,1,11.06-2h13.88a30.64,30.64,0,0,1,11.3,2,25.73,25.73,0,0,1,8.86,5.63,25.17,25.17,0,0,1,5.73,8.72,29.21,29.21,0,0,1,2,11.11,30,30,0,0,1-2.12,11.34,26.74,26.74,0,0,1-5.8,9.1,27.66,27.66,0,0,1-8.79,6,28.48,28.48,0,0,1-11.22,2.16Zm13.88-9.8a18.4,18.4,0,0,0,7.22-1.39,16.86,16.86,0,0,0,9.41-9.64,19.85,19.85,0,0,0,1.34-7.33,19.25,19.25,0,0,0-1.34-7.25,16.43,16.43,0,0,0-3.76-5.79,16.23,16.23,0,0,0-5.65-3.7,18.4,18.4,0,0,0-7.22-1.39H1634.3a18.18,18.18,0,0,0-7.14,1.39,16.37,16.37,0,0,0-5.57,3.7,17.16,17.16,0,0,0-3.69,5.71,19.46,19.46,0,0,0-1.33,7.33,19.84,19.84,0,0,0,1.33,7.33,17.86,17.86,0,0,0,3.69,5.86,17.34,17.34,0,0,0,5.57,3.78,18.18,18.18,0,0,0,7.14,1.39Z" style="fill:#383838"/><path d="M1718.06,490.67a28,28,0,0,1-11.06-2.16,28.82,28.82,0,0,1-8.79-6,28.33,28.33,0,0,1-5.8-9.1,31,31,0,0,1-2-11.34,30,30,0,0,1,2-11.26,25.25,25.25,0,0,1,5.8-8.64,25.91,25.91,0,0,1,8.79-5.55,29.93,29.93,0,0,1,11.06-2H1749v9.8h-30.91a18.22,18.22,0,0,0-7.14,1.39,16.46,16.46,0,0,0-5.57,3.7,17.16,17.16,0,0,0-3.69,5.71,19.46,19.46,0,0,0-1.33,7.33,19.84,19.84,0,0,0,1.33,7.33,17.86,17.86,0,0,0,3.69,5.86,17.45,17.45,0,0,0,5.57,3.78,18.22,18.22,0,0,0,7.14,1.39h24.4V466.29h-25.73V458h35.77v32.63Z" style="fill:#383838"/><path d="M1770,490.67V434.59h10v56.08Z" style="fill:#383838"/><path d="M1798.25,490.67v-9.8H1841a8.55,8.55,0,0,0,6.11-2,6.84,6.84,0,0,0,2.2-5.32,6.51,6.51,0,0,0-2.2-5.4,9,9,0,0,0-6.11-1.85H1814.8a21.89,21.89,0,0,1-7.29-1.16,17,17,0,0,1-5.49-3.32,15.56,15.56,0,0,1-3.45-5.09,16.92,16.92,0,0,1-1.18-6.4,17.3,17.3,0,0,1,1.1-6.25,14,14,0,0,1,3.37-5,16,16,0,0,1,5.57-3.24,21.42,21.42,0,0,1,7.53-1.23h41v9.8h-41a7.27,7.27,0,0,0-5.33,1.85,7.59,7.59,0,0,0,0,10,7.52,7.52,0,0,0,5.25,1.77H1841q8.7,0,13.17,4t4.55,12.19a19,19,0,0,1-1.09,6.56,14.67,14.67,0,0,1-3.3,5.24,15.28,15.28,0,0,1-5.57,3.39,22.12,22.12,0,0,1-7.76,1.23Z" style="fill:#383838"/><path d="M1893.4,490.67V444.39h-21.65v-9.8H1925v9.8h-21.65v46.28Z" style="fill:#383838"/><path d="M1940,490.67V434.59h10v56.08Z" style="fill:#383838"/><path d="M1994.22,490.67a28.08,28.08,0,0,1-11.06-2.16,28.9,28.9,0,0,1-8.78-6,28.36,28.36,0,0,1-5.81-9.1,31,31,0,0,1-2-11.34,30,30,0,0,1,2-11.26,25.28,25.28,0,0,1,5.81-8.64,26,26,0,0,1,8.78-5.55,30,30,0,0,1,11.06-2h30.91v9.8h-30.91a18.13,18.13,0,0,0-7.13,1.39,16.36,16.36,0,0,0-5.57,3.7,17.16,17.16,0,0,0-3.69,5.71,19.46,19.46,0,0,0-1.33,7.33,19.84,19.84,0,0,0,1.33,7.33,17.86,17.86,0,0,0,3.69,5.86,17.34,17.34,0,0,0,5.57,3.78,18.13,18.13,0,0,0,7.13,1.39h30.91v9.8Z" style="fill:#383838"/></g></svg>