<svg xmlns="http://www.w3.org/2000/svg" width="2026.7" height="490.81" viewBox="0 0 2026.7 490.81"><title>belmont-logo-footer</title><path d="M213.4,328.1l92.8-47.4-92.8-47,92.8-47-91.3-47-89.7,47v94.1Z" style="fill:#fff"/><polygon points="0 24.5 0 434.6 93.9 385.5 90.5 73.6 0 24.5" style="fill:#333"/><polygon points="125.3 373.1 125.3 469.6 306.2 373.1 306.2 280.6 213.4 328.1 125.3 373.1" style="fill:#333"/><polygon points="125.3 0 125.3 93.3 214.9 139.5 306.2 186.6 306.2 93.3 125.3 0" style="fill:#333"/><path d="M125.3,51.2,174,76.3l-3.5-11L125.3,42Zm73,28.5,3.5,11L247,114l-3.5-11Zm107.9,64.8-29.6-15.2-1.7-10.1,31.3,16.1v9.2Z" style="fill:#fff"/><path d="M191.4,392.3,233.2,370l3.5-11-41.8,21.8Zm-34.8,18.6,4.5-12.5-35.8,18.7v10.5Zm149.6-79.8-38.3,20.4,3.5-10.6,34.8-18.1Z" style="fill:#fff"/><polygon points="41.8 196.3 48.7 203.3 48.7 161.2 41.8 154.2 41.8 196.3" style="fill:#fff"/><polygon points="41.8 77.1 41.8 119.2 48.7 126.2 48.7 84.1 41.8 77.1" style="fill:#fff"/><polygon points="41.8 273.4 48.7 280.4 48.7 238.3 41.8 231.3 41.8 273.4" style="fill:#fff"/><polygon points="41.8 350.5 48.7 357.5 48.7 315.4 41.8 308.4 41.8 350.5" style="fill:#fff"/><polygon points="41.8 413.6 48.7 410.1 48.7 392.5 41.8 385.5 41.8 413.6" style="fill:#fff"/><path d="M462.8,135.1v72.4H547v32.8H462.8V307H571v41.2H410.3V93.9H571v41.2Z" style="fill:#333"/><path d="M794.7,305.4v42.8H644.9V93.9h52.2V305.4Z" style="fill:#333"/><path d="M1139.8,93.9V348.2h-46.1V192.1c0-3.3.1-6.8.2-10.5s.6-7.5,1-11.4l-72.2,137.9c-4,7.6-10,11.4-18.3,11.4h-7.3a20.22,20.22,0,0,1-10.8-2.8,21.16,21.16,0,0,1-7.5-8.6L906.3,169.7c.3,4.1.6,8.1.9,11.9s.3,7.2.3,10.5V348.2H861.4V93.9h39.7c2.2,0,4.2.1,5.9.2a12.4,12.4,0,0,1,4.5,1.1,9,9,0,0,1,3.7,2.5,15.58,15.58,0,0,1,3.3,4.6l70.6,135.6c2.2,4.1,4.2,8.3,6.1,12.6s3.8,8.8,5.6,13.3c1.7-4.7,3.5-9.2,5.4-13.7s4.1-8.7,6.3-12.8l70.1-135.1a15.57,15.57,0,0,1,3.3-4.6,10.54,10.54,0,0,1,3.7-2.5,16.48,16.48,0,0,1,4.5-1.1c1.7-.1,3.8-.2,6.1-.2h39.6Z" style="fill:#333"/><path d="M1471.2,221a139.5,139.5,0,0,1-9.4,51.7,119.69,119.69,0,0,1-67,68.5q-23.85,9.75-52.9,9.8t-52.9-9.8a125.37,125.37,0,0,1-40.9-27.3,120.39,120.39,0,0,1-26.4-41.2c-6.2-15.9-9.2-33.1-9.2-51.7a141.55,141.55,0,0,1,9.2-51.5,123.43,123.43,0,0,1,26.4-41.2c11.3-11.6,25-20.6,40.9-27.2s33.5-10,52.9-10,37,3.3,52.9,10a118.07,118.07,0,0,1,40.7,27.3,120.16,120.16,0,0,1,26.3,41.2A139.38,139.38,0,0,1,1471.2,221Zm-53.5,0c0-13.3-1.7-25.2-5.2-35.7a75.48,75.48,0,0,0-15.1-27,62.65,62.65,0,0,0-23.8-17c-9.3-4-19.8-6-31.7-6s-22.5,2-31.8,6a64.14,64.14,0,0,0-24,17,76.84,76.84,0,0,0-15,27c-3.5,10.5-5.2,22.4-5.2,35.7s1.7,25.5,5.2,36.1a75.91,75.91,0,0,0,15,26.8,66.45,66.45,0,0,0,24,17c9.4,3.9,20,5.8,31.8,5.8s22.4-1.9,31.7-5.8a64.87,64.87,0,0,0,23.8-17,73.94,73.94,0,0,0,15.1-26.8C1416,246.4,1417.7,234.4,1417.7,221Z" style="fill:#333"/><path d="M1760.3,93.9V348.2h-27a24.3,24.3,0,0,1-10.3-1.9,25.78,25.78,0,0,1-8.2-7L1589.1,178c.3,4.1.6,8.1.7,12.1s.4,7.7.4,11v147h-46.1V93.9h27.5a29.92,29.92,0,0,1,5.6.4,9.81,9.81,0,0,1,4.3,1.2,14.2,14.2,0,0,1,3.7,2.5,41.87,41.87,0,0,1,3.8,4.2l126.7,168.9c-.5-4.4-.8-15.7-1-19.8s-.3-8.2-.3-11.9V93.9Z" style="fill:#333"/><path d="M2026.7,136.3h-73.8V348.2h-52.4V136.3h-73.8V93.9h199.9v42.4Z" style="fill:#333"/><path d="M1544.9,490.7V434.6h10v46.3h38.4v9.8h-48.4Z" style="fill:#333"/><path d="M1634.3,490.7a27.17,27.17,0,0,1-11.1-2.2,29.85,29.85,0,0,1-8.8-6,27.77,27.77,0,0,1-5.8-9.1,30.22,30.22,0,0,1-2-11.3,31.54,31.54,0,0,1,2-11.3,23.76,23.76,0,0,1,5.8-8.6,26,26,0,0,1,8.8-5.6,30.84,30.84,0,0,1,11.1-2h13.9a31.54,31.54,0,0,1,11.3,2,25.45,25.45,0,0,1,8.9,5.6,23.52,23.52,0,0,1,5.7,8.7,28.15,28.15,0,0,1,2,11.1,29.9,29.9,0,0,1-2.1,11.3,27.77,27.77,0,0,1-5.8,9.1,28.61,28.61,0,0,1-8.8,6,29,29,0,0,1-11.2,2.2h-13.9Zm13.9-9.8a18.85,18.85,0,0,0,7.2-1.4,17,17,0,0,0,9.5-9.7,19.7,19.7,0,0,0,1.3-7.3,22,22,0,0,0-1.3-7.3,15.42,15.42,0,0,0-3.8-5.8,17,17,0,0,0-5.7-3.7,18.85,18.85,0,0,0-7.2-1.4h-13.9a18.35,18.35,0,0,0-7.1,1.4,16.58,16.58,0,0,0-5.6,3.7,17,17,0,0,0-3.7,5.7,21.15,21.15,0,0,0,0,14.6,17.9,17.9,0,0,0,3.7,5.9,16.83,16.83,0,0,0,5.6,3.8,18.72,18.72,0,0,0,7.1,1.4h13.9Z" style="fill:#333"/><path d="M1718.1,490.7a27.17,27.17,0,0,1-11.1-2.2,29.85,29.85,0,0,1-8.8-6,27.77,27.77,0,0,1-5.8-9.1,30.22,30.22,0,0,1-2-11.3,31.54,31.54,0,0,1,2-11.3,23.76,23.76,0,0,1,5.8-8.6,26,26,0,0,1,8.8-5.6,30.84,30.84,0,0,1,11.1-2H1749v9.8h-30.9a18.35,18.35,0,0,0-7.1,1.4,17.63,17.63,0,0,0-5.6,3.7,17,17,0,0,0-3.7,5.7,21.15,21.15,0,0,0,0,14.6,17.9,17.9,0,0,0,3.7,5.9,16.83,16.83,0,0,0,5.6,3.8,18.72,18.72,0,0,0,7.1,1.4h24.4V466.3h-25.7V458h35.8v32.6h-34.5Z" style="fill:#333"/><path d="M1770,490.7V434.6h10v56.1Z" style="fill:#333"/><path d="M1798.3,490.7v-9.8h42.8a8.61,8.61,0,0,0,6.1-2,6.66,6.66,0,0,0,2.2-5.3,6.47,6.47,0,0,0-2.2-5.4,9.08,9.08,0,0,0-6.1-1.9h-26.2a21.09,21.09,0,0,1-7.3-1.2,15.83,15.83,0,0,1-5.5-3.3,15.44,15.44,0,0,1-3.5-5.1,17,17,0,0,1-1.2-6.4,17.54,17.54,0,0,1,1.1-6.2,13.47,13.47,0,0,1,3.4-5,14.69,14.69,0,0,1,5.6-3.2,21.86,21.86,0,0,1,7.5-1.2h41v9.8h-41a6.89,6.89,0,0,0-5.3,1.9,6.83,6.83,0,0,0,5.3,11.8h26.1c5.8,0,10.2,1.3,13.2,4s4.5,6.7,4.5,12.2a19.86,19.86,0,0,1-1.1,6.6,12.87,12.87,0,0,1-3.3,5.2,15.56,15.56,0,0,1-5.6,3.4,22.84,22.84,0,0,1-7.8,1.2h-42.7Z" style="fill:#333"/><path d="M1893.4,490.7V444.4h-21.7v-9.8H1925v9.8h-21.7v46.3Z" style="fill:#333"/><path d="M1940,490.7V434.6h10v56.1Z" style="fill:#333"/><path d="M1994.2,490.7a27.17,27.17,0,0,1-11.1-2.2,29.85,29.85,0,0,1-8.8-6,27.77,27.77,0,0,1-5.8-9.1,30.22,30.22,0,0,1-2-11.3,31.54,31.54,0,0,1,2-11.3,25.09,25.09,0,0,1,5.8-8.6,26,26,0,0,1,8.8-5.6,30.84,30.84,0,0,1,11.1-2h30.9v9.8h-30.9a18.35,18.35,0,0,0-7.1,1.4,16.58,16.58,0,0,0-5.6,3.7,17,17,0,0,0-3.7,5.7,21.15,21.15,0,0,0,0,14.6,17.9,17.9,0,0,0,3.7,5.9,16.83,16.83,0,0,0,5.6,3.8,18.72,18.72,0,0,0,7.1,1.4h30.9v9.8h-30.9Z" style="fill:#333"/></svg>