<svg xmlns="http://www.w3.org/2000/svg" style="display:none"><symbol id="templ" viewBox="0 0 595.3 841.9"><path d="M22 24.3v236.1h550.4V24.3H22zm113.8 235.3h-113v-47h113v47zm0-48h-113v-41.9h113v41.9zm0-42.8h-113v-48.6h113v48.6zm0-49.6h-113V72.3h113v46.9zm0-47.9h-113V25.1h113v46.2zm152.5 188.3H136.6v-47h151.7v47zm0-48H136.6v-41.9h151.7v41.9zm0-42.8H136.6v-48.6h151.7v48.6zm0-49.6H136.6V72.3h151.7v46.9zm0-47.9H136.6V25.1h151.7v46.2zm152.6 188.3H289.2v-47h151.7v47zm0-48H289.2v-41.9h151.7v41.9zm0-42.8H289.2v-48.6h151.7v48.6zm0-49.6H289.2V72.3h151.7v46.9zm0-47.9H289.2V25.1h151.7v46.2zm130.7 188.3H441.7v-47h129.9v47zm0-48H441.7v-41.9h129.9v41.9zm0-42.8H441.7v-48.6h129.9v48.6zm0-49.6H441.7V72.3h129.9v46.9zm0-47.9H441.7V25.1h129.9v46.2z"/><path d="M34.9 41.6h-3.4v-7.2h-1.1v8.1h4.5zM38.2 42.7c1.4 0 2.9-.9 2.9-3.1 0-1.8-1.1-3-2.8-3-1.6 0-2.9 1.1-2.9 3.1.1 1.8 1.3 3 2.8 3zm.1-5.3c1.2 0 1.7 1.2 1.7 2.2 0 1.3-.8 2.3-1.8 2.3s-1.8-1-1.8-2.2c.1-1.2.7-2.3 1.9-2.3zM42.5 42.5h1v-3.1-.5c.1-.8.7-1.4 1.4-1.4h.4v-1H45c-.7 0-1.3.5-1.6 1.3v-1.1h-.9v5.8zM48.7 42.6c.9 0 1.6-.2 1.9-.4l-.2-.8c-.4.2-.9.3-1.6.3-1.1 0-2-.6-2-2h4.1v-.5c0-1.1-.5-2.7-2.4-2.7-1.7 0-2.7 1.4-2.7 3.1 0 1.9 1.1 3 2.9 3zm-.2-5.3c1.2 0 1.5 1 1.5 1.7h-3.1c0-.7.5-1.7 1.6-1.7zM52.3 42.5h1V39c0-.2 0-.4.1-.5.2-.5.6-1.1 1.3-1.1.8 0 1.2.7 1.2 1.6v3.5h1v-3.6c0-.2 0-.4.1-.5.2-.5.6-1 1.2-1 .9 0 1.3.7 1.3 1.8v3.3h1v-3.4c0-2-1.1-2.5-1.9-2.5-.6 0-.9.1-1.3.4-.2.2-.5.4-.6.8-.3-.7-.9-1.2-1.6-1.2-1 0-1.5.5-1.8 1.1v-.9h-.9V42.5zM64.8 36.7h1.1v5.8h-1.1zM65.3 35.7c.4 0 .7-.3.7-.6 0-.4-.3-.7-.6-.7-.4 0-.7.3-.7.7 0 .3.3.6.6.6zM67.6 44.9h1v-3.2c.3.6 1 .9 1.8.9 1.4 0 2.6-1 2.6-3.1 0-1.8-1.1-3-2.5-3-.9 0-1.6.4-2.1 1.1v-1h-.9v8.3zm1.1-5.7c0-.1 0-.3.1-.4.2-.8.9-1.3 1.6-1.3 1.1 0 1.7 1 1.7 2.2 0 1.3-.6 2.2-1.8 2.2-.8 0-1.4-.5-1.6-1.2v-1.5zM75.7 41.9c-.5 0-1.1-.2-1.4-.4l-.3.8c.4.2 1 .4 1.6.4 1.4 0 2.2-.7 2.2-1.7 0-.9-.5-1.4-1.5-1.8-.8-.3-1.1-.5-1.1-1 0-.4.3-.8 1-.8.5 0 1 .2 1.2.3l.3-.8c-.3-.2-.8-.4-1.4-.4-1.2 0-2 .8-2 1.7 0 .7.5 1.3 1.5 1.6.8.3 1.1.6 1.1 1.1-.1.6-.4 1-1.2 1zM81.2 42.7c1 0 1.6-.6 1.9-1.1l.1.9h.9V36.7H83v3.6c0 .2 0 .4-.1.5-.2.5-.7 1-1.4 1-1 0-1.3-.7-1.3-1.8v-3.2h-1.1v3.4c.1 1.9 1.2 2.5 2.1 2.5zM85.8 42.5h1V39c0-.2 0-.4.1-.5.2-.5.6-1.1 1.3-1.1.8 0 1.2.7 1.2 1.6v3.5h1v-3.6c0-.2 0-.4.1-.5.2-.5.6-1 1.2-1 .9 0 1.3.7 1.3 1.8v3.3h1v-3.4c0-2-1.1-2.5-1.9-2.5-.6 0-.9.1-1.3.4-.2.2-.5.4-.6.8-.3-.7-.9-1.2-1.6-1.2-1 0-1.5.5-1.8 1.1v-.9h-.9V42.5zM100.4 42.7c.9 0 1.7-.5 2-1.1v1h.9v-8.5h-1.1v3.5c-.3-.5-.9-.9-1.8-.9-1.4 0-2.6 1.2-2.6 3.1.2 1.7 1.2 2.9 2.6 2.9zm.4-5.3c.8 0 1.4.6 1.5 1.2v1.9c-.2.8-.8 1.3-1.5 1.3-1.1 0-1.7-1-1.7-2.1-.1-1.3.6-2.3 1.7-2.3zM107.5 42.7c1.4 0 2.9-.9 2.9-3.1 0-1.8-1.1-3-2.8-3-1.6 0-2.9 1.1-2.9 3.1 0 1.8 1.2 3 2.8 3zm.1-5.3c1.2 0 1.7 1.2 1.7 2.2 0 1.3-.8 2.3-1.8 2.3s-1.8-1-1.8-2.2c.1-1.2.6-2.3 1.9-2.3zM111.7 34h1.1v8.5h-1.1zM116.9 42.7c1.4 0 2.9-.9 2.9-3.1 0-1.8-1.1-3-2.8-3-1.6 0-2.9 1.1-2.9 3.1 0 1.8 1.3 3 2.8 3zm.1-5.3c1.2 0 1.7 1.2 1.7 2.2 0 1.3-.8 2.3-1.8 2.3s-1.8-1-1.8-2.2c.1-1.2.7-2.3 1.9-2.3zM121.2 42.5h1v-3.1-.5c.1-.8.7-1.4 1.4-1.4h.4v-1h-.3c-.7 0-1.3.5-1.6 1.3v-1.1h-.9v5.8zM31.6 56.3c-.5 0-1.1-.2-1.4-.4l-.2.7c.4.2 1 .4 1.6.4 1.4 0 2.2-.7 2.2-1.7 0-.9-.5-1.4-1.5-1.8-.8-.3-1.1-.5-1.1-1 0-.4.3-.8 1-.8.5 0 1 .2 1.2.3l.3-.8c-.3-.2-.8-.4-1.4-.4-1.2 0-2 .8-2 1.7 0 .7.5 1.3 1.5 1.6.8.3 1.1.6 1.1 1.1-.1.7-.5 1.1-1.3 1.1zM35.1 51.1h1.1v5.8h-1.1zM35.6 50.1c.4 0 .7-.3.7-.6 0-.4-.3-.7-.6-.7-.4 0-.7.3-.7.7 0 .3.3.6.6.6zM39.2 49.4l-1 .3v1.4h-.9v.8h.9v3.2c0 .7.1 1.2.4 1.5.3.3.6.4 1.1.4.4 0 .7-.1.9-.1v-.8c-.1 0-.3.1-.6.1-.6 0-.8-.4-.8-1.1V52h1.5v-.8h-1.5v-1.8zM48.5 53.4c0-1.2-.4-2.4-2.2-2.4-.7 0-1.4.2-1.9.5l.2.7c.4-.3 1-.4 1.5-.4 1.2 0 1.3.9 1.3 1.3v.1c-2.2 0-3.5.8-3.5 2.2 0 .8.6 1.7 1.8 1.7.8 0 1.5-.4 1.8-.9l.1.7h1c-.1-.4-.1-.9-.1-1.4v-2.1zm-1 1.6c0 .1 0 .2-.1.3-.2.5-.6 1-1.4 1-.5 0-1-.3-1-1 0-1.1 1.3-1.3 2.5-1.3v1zM50.2 52.7v4.2h1v-3.5c0-.2 0-.4.1-.5.2-.5.6-1.1 1.3-1.1.8 0 1.2.7 1.2 1.6v3.5h1v-3.6c0-.2 0-.4.1-.5.2-.5.6-1 1.2-1 .9 0 1.3.7 1.3 1.8v3.3h1v-3.4c0-2-1.1-2.5-1.9-2.5-.6 0-.9.1-1.3.4-.2.2-.5.4-.6.8-.2-.7-.8-1.2-1.6-1.2-1 0-1.5.5-1.8 1.1v-.9h-.9c-.1.4-.1.9-.1 1.5zM59.8 54.1c0 1.8 1.1 2.9 2.9 2.9.9 0 1.6-.2 1.9-.4l-.2-.8c-.4.2-.9.3-1.6.3-1.1 0-2-.6-2-2h4.1v-.5c0-1.1-.5-2.7-2.4-2.7-1.6.1-2.7 1.5-2.7 3.2zm2.7-2.4c1.2 0 1.5 1 1.5 1.7h-3.1c0-.7.5-1.7 1.6-1.7zM65.6 51.9h.9v3.2c0 .7.1 1.2.4 1.5.3.3.6.4 1.1.4.4 0 .7-.1.9-.1v-.8c-.1 0-.3.1-.6.1-.6 0-.8-.4-.8-1.1V52H69v-.8h-1.5v-1.7l-1 .3v1.4h-.9v.7zM69.5 58.4l.8-.1c.3-.6.9-1.9 1.1-2.9l-1.2.1c-.1.9-.4 2.2-.7 2.9zM74.8 54.1c0 1.8 1.1 3 2.9 3 .8 0 1.4-.2 1.7-.3l-.2-.8c-.3.1-.7.3-1.3.3-1.2 0-2-.8-2-2.2 0-1.2.7-2.2 2.1-2.2.6 0 1 .1 1.2.3l.2-.8c-.3-.1-.8-.3-1.5-.3-1.9-.1-3.1 1.2-3.1 3zM80.1 54.1c0 1.8 1.2 3 2.8 3 1.4 0 2.9-.9 2.9-3.1 0-1.8-1.1-3-2.8-3-1.6 0-2.9 1.1-2.9 3.1zm4.6-.1c0 1.3-.8 2.3-1.8 2.3s-1.8-1-1.8-2.2c0-1.1.5-2.3 1.8-2.3s1.8 1.2 1.8 2.2zM90 51c-1 0-1.6.5-1.9 1.1l-.1-1h-.9V56.9h1.1v-3.5c0-.2 0-.4.1-.5.2-.6.7-1.1 1.4-1.1 1 0 1.3.8 1.3 1.7v3.3h1.1v-3.5c0-1.8-1.3-2.3-2.1-2.3zM93.5 52.7c0 .7.5 1.3 1.5 1.6.8.3 1.1.6 1.1 1.1 0 .5-.4.9-1.1.9-.5 0-1.1-.2-1.4-.4l-.3.8c.4.2 1 .4 1.6.4 1.4 0 2.2-.7 2.2-1.7 0-.9-.5-1.4-1.5-1.8-.8-.3-1.1-.5-1.1-1 0-.4.3-.8 1-.8.5 0 1 .2 1.2.3l.3-.8c-.3-.2-.8-.4-1.4-.4-1.3.1-2.1.9-2.1 1.8zM100.8 51c-1.7 0-2.7 1.4-2.7 3.1S99.2 57 101 57c.9 0 1.6-.2 1.9-.4l-.2-.8c-.4.2-.9.3-1.6.3-1.1 0-2-.6-2-2h4.1v-.5c0-.9-.5-2.6-2.4-2.6zm-1.7 2.5c.1-.7.6-1.7 1.6-1.7 1.2 0 1.5 1 1.5 1.7h-3.1zM107 57c.8 0 1.4-.2 1.7-.3l-.2-.8c-.3.1-.7.3-1.3.3-1.2 0-2-.8-2-2.2 0-1.2.7-2.2 2.1-2.2.6 0 1 .1 1.2.3l.2-.8c-.3-.1-.8-.3-1.5-.3-1.9 0-3.1 1.3-3.1 3.1s1.2 2.9 2.9 2.9zM163.4 41.6H160v-7.2h-1.1v8.1h4.5zM166.7 42.7c1.4 0 2.9-.9 2.9-3.1 0-1.8-1.1-3-2.8-3-1.6 0-2.9 1.1-2.9 3.1.1 1.8 1.3 3 2.8 3zm.1-5.3c1.2 0 1.7 1.2 1.7 2.2 0 1.3-.8 2.3-1.8 2.3s-1.8-1-1.8-2.2c.1-1.2.7-2.3 1.9-2.3zM171 42.5h1v-3.1-.5c.1-.8.7-1.4 1.4-1.4h.4v-1h-.3c-.7 0-1.3.5-1.6 1.3v-1.1h-.9v5.8zM177.2 42.6c.9 0 1.6-.2 1.9-.4l-.2-.8c-.4.2-.9.3-1.6.3-1.1 0-2-.6-2-2h4.1v-.5c0-1.1-.5-2.7-2.4-2.7-1.7 0-2.7 1.4-2.7 3.1 0 1.9 1.1 3 2.9 3zm-.2-5.3c1.2 0 1.5 1 1.5 1.7h-3.1c0-.7.5-1.7 1.6-1.7zM180.8 42.5h1V39c0-.2 0-.4.1-.5.2-.5.6-1.1 1.3-1.1.8 0 1.2.7 1.2 1.6v3.5h1v-3.6c0-.2 0-.4.1-.5.2-.5.6-1 1.2-1 .9 0 1.3.7 1.3 1.8v3.3h1v-3.4c0-2-1.1-2.5-1.9-2.5-.6 0-.9.1-1.3.4-.2.2-.5.4-.6.8-.3-.7-.9-1.2-1.6-1.2-1 0-1.5.5-1.8 1.1v-.9h-.9V42.5zM193.3 36.7h1.1v5.8h-1.1zM193.8 35.7c.4 0 .7-.3.7-.6 0-.4-.3-.7-.6-.7-.4 0-.7.3-.7.7 0 .3.3.6.6.6zM196.1 44.9h1v-3.2c.3.6 1 .9 1.8.9 1.4 0 2.6-1 2.6-3.1 0-1.8-1.1-3-2.5-3-.9 0-1.6.4-2.1 1.1v-1h-.9v8.3zm1.1-5.7c0-.1 0-.3.1-.4.2-.8.9-1.3 1.6-1.3 1.1 0 1.7 1 1.7 2.2 0 1.3-.6 2.2-1.8 2.2-.8 0-1.4-.5-1.6-1.2v-1.5zM204.2 41.9c-.5 0-1.1-.2-1.4-.4l-.3.8c.4.2 1 .4 1.6.4 1.4 0 2.2-.7 2.2-1.7 0-.9-.5-1.4-1.5-1.8-.8-.3-1.1-.5-1.1-1 0-.4.3-.8 1-.8.5 0 1 .2 1.2.3l.3-.8c-.3-.2-.8-.4-1.4-.4-1.2 0-2 .8-2 1.7 0 .7.5 1.3 1.5 1.6.8.3 1.1.6 1.1 1.1-.1.6-.4 1-1.2 1zM209.7 42.7c1 0 1.6-.6 1.9-1.1l.1.9h.9V36.7h-1.1v3.6c0 .2 0 .4-.1.5-.2.5-.7 1-1.4 1-1 0-1.3-.7-1.3-1.8v-3.2h-1.1v3.4c.1 1.9 1.2 2.5 2.1 2.5zM214.3 42.5h1V39c0-.2 0-.4.1-.5.2-.5.6-1.1 1.3-1.1.8 0 1.2.7 1.2 1.6v3.5h1v-3.6c0-.2 0-.4.1-.5.2-.5.6-1 1.2-1 .9 0 1.3.7 1.3 1.8v3.3h1v-3.4c0-2-1.1-2.5-1.9-2.5-.6 0-.9.1-1.3.4-.2.2-.5.4-.6.8-.3-.7-.9-1.2-1.6-1.2-1 0-1.5.5-1.8 1.1v-.9h-.9V42.5zM228.9 42.7c.9 0 1.7-.5 2-1.1v1h.9v-8.5h-1.1v3.5c-.3-.5-.9-.9-1.8-.9-1.4 0-2.6 1.2-2.6 3.1.2 1.7 1.2 2.9 2.6 2.9zm.4-5.3c.8 0 1.4.6 1.5 1.2v1.9c-.2.8-.8 1.3-1.5 1.3-1.1 0-1.7-1-1.7-2.1-.1-1.3.6-2.3 1.7-2.3zM236 42.7c1.4 0 2.9-.9 2.9-3.1 0-1.8-1.1-3-2.8-3-1.6 0-2.9 1.1-2.9 3.1 0 1.8 1.2 3 2.8 3zm.1-5.3c1.2 0 1.7 1.2 1.7 2.2 0 1.3-.8 2.3-1.8 2.3s-1.8-1-1.8-2.2c.1-1.2.6-2.3 1.9-2.3zM240.2 34h1.1v8.5h-1.1zM245.4 42.7c1.4 0 2.9-.9 2.9-3.1 0-1.8-1.1-3-2.8-3-1.6 0-2.9 1.1-2.9 3.1 0 1.8 1.3 3 2.8 3zm.1-5.3c1.2 0 1.7 1.2 1.7 2.2 0 1.3-.8 2.3-1.8 2.3s-1.8-1-1.8-2.2c.1-1.2.7-2.3 1.9-2.3zM249.7 42.5h1v-3.1-.5c.1-.8.7-1.4 1.4-1.4h.4v-1h-.3c-.7 0-1.3.5-1.6 1.3v-1.1h-.9v5.8zM160.1 56.3c-.5 0-1.1-.2-1.4-.4l-.3.8c.4.2 1 .4 1.6.4 1.4 0 2.2-.7 2.2-1.7 0-.9-.5-1.4-1.5-1.8-.8-.3-1.1-.5-1.1-1 0-.4.3-.8 1-.8.5 0 1 .2 1.2.3l.3-.8c-.3-.2-.8-.4-1.4-.4-1.2 0-2 .8-2 1.7 0 .7.5 1.3 1.5 1.6.8.3 1.1.6 1.1 1.1 0 .6-.4 1-1.2 1zM164.1 50.1c.4 0 .7-.3.7-.6 0-.4-.3-.7-.6-.7-.4 0-.7.3-.7.7 0 .3.3.6.6.6zM163.6 51.1h1.1v5.8h-1.1zM167.7 49.4l-1 .3v1.4h-.9v.8h.9v3.2c0 .7.1 1.2.4 1.5.3.3.6.4 1.1.4.4 0 .7-.1.9-.1v-.8c-.1 0-.3.1-.6.1-.6 0-.8-.4-.8-1.1V52h1.5v-.8h-1.5v-1.8zM177 53.4c0-1.2-.4-2.4-2.2-2.4-.7 0-1.4.2-1.9.5l.2.7c.4-.3 1-.4 1.5-.4 1.2 0 1.3.9 1.3 1.3v.1c-2.2 0-3.5.8-3.5 2.2 0 .8.6 1.7 1.8 1.7.8 0 1.5-.4 1.8-.9l.1.7h1c-.1-.4-.1-.9-.1-1.4v-2.1zm-1 1.6c0 .1 0 .2-.1.3-.2.5-.6 1-1.4 1-.5 0-1-.3-1-1 0-1.1 1.3-1.3 2.5-1.3v1zM178.7 52.7v4.2h1v-3.5c0-.2 0-.4.1-.5.2-.5.6-1.1 1.3-1.1.8 0 1.2.7 1.2 1.6v3.5h1v-3.6c0-.2 0-.4.1-.5.2-.5.6-1 1.2-1 .9 0 1.3.7 1.3 1.8v3.3h1v-3.4c0-2-1.1-2.5-1.9-2.5-.6 0-.9.1-1.3.4-.2.2-.5.4-.6.8-.3-.7-.9-1.2-1.6-1.2-1 0-1.5.5-1.8 1.1v-.9h-.9c-.1.4-.1.9-.1 1.5zM188.3 54.1c0 1.8 1.1 2.9 2.9 2.9.9 0 1.6-.2 1.9-.4l-.2-.8c-.4.2-.9.3-1.6.3-1.1 0-2-.6-2-2h4.1v-.5c0-1.1-.5-2.7-2.4-2.7-1.6.1-2.7 1.5-2.7 3.2zm2.7-2.4c1.2 0 1.5 1 1.5 1.7h-3.1c0-.7.5-1.7 1.6-1.7zM194.1 51.9h.9v3.2c0 .7.1 1.2.4 1.5.3.3.6.4 1.1.4.4 0 .7-.1.9-.1v-.8c-.1 0-.3.1-.6.1-.6 0-.8-.4-.8-1.1V52h1.5v-.8H196v-1.7l-1 .3v1.4h-.9v.7zM198 58.4l.8-.1c.3-.6.9-1.9 1.1-2.9l-1.2.1c-.1.9-.4 2.2-.7 2.9zM203.3 54.1c0 1.8 1.1 3 2.9 3 .8 0 1.4-.2 1.7-.3l-.2-.8c-.3.1-.7.3-1.3.3-1.2 0-2-.8-2-2.2 0-1.2.7-2.2 2.1-2.2.6 0 1 .1 1.2.3l.2-.8c-.3-.1-.8-.3-1.5-.3-1.9-.1-3.1 1.2-3.1 3zM208.6 54.1c0 1.8 1.2 3 2.8 3 1.4 0 2.9-.9 2.9-3.1 0-1.8-1.1-3-2.8-3-1.6 0-2.9 1.1-2.9 3.1zm4.6-.1c0 1.3-.8 2.3-1.8 2.3s-1.8-1-1.8-2.2c0-1.1.5-2.3 1.8-2.3s1.8 1.2 1.8 2.2zM218.5 51c-1 0-1.6.5-1.9 1.1l-.1-1h-.9V56.9h1.1v-3.5c0-.2 0-.4.1-.5.2-.6.7-1.1 1.4-1.1 1 0 1.3.8 1.3 1.7v3.3h1.1v-3.5c0-1.8-1.3-2.3-2.1-2.3zM222 52.7c0 .7.5 1.3 1.5 1.6.8.3 1.1.6 1.1 1.1 0 .5-.4.9-1.1.9-.5 0-1.1-.2-1.4-.4l-.3.8c.4.2 1 .4 1.6.4 1.4 0 2.2-.7 2.2-1.7 0-.9-.5-1.4-1.5-1.8-.8-.3-1.1-.5-1.1-1 0-.4.3-.8 1-.8.5 0 1 .2 1.2.3l.3-.8c-.3-.2-.8-.4-1.4-.4-1.3.1-2.1.9-2.1 1.8zM229.3 51c-1.7 0-2.7 1.4-2.7 3.1s1.1 2.9 2.9 2.9c.9 0 1.6-.2 1.9-.4l-.2-.8c-.4.2-.9.3-1.6.3-1.1 0-2-.6-2-2h4.1v-.5c0-.9-.5-2.6-2.4-2.6zm-1.7 2.5c.1-.7.6-1.7 1.6-1.7 1.2 0 1.5 1 1.5 1.7h-3.1zM235.5 57c.8 0 1.4-.2 1.7-.3l-.2-.8c-.3.1-.7.3-1.3.3-1.2 0-2-.8-2-2.2 0-1.2.7-2.2 2.1-2.2.6 0 1 .1 1.2.3l.2-.8c-.3-.1-.8-.3-1.5-.3-1.9 0-3.1 1.3-3.1 3.1s1.2 2.9 2.9 2.9zM320.4 41.6H317v-7.2h-1.1v8.1h4.5zM323.8 42.7c1.4 0 2.9-.9 2.9-3.1 0-1.8-1.1-3-2.8-3-1.6 0-2.9 1.1-2.9 3.1 0 1.8 1.2 3 2.8 3zm0-5.3c1.2 0 1.7 1.2 1.7 2.2 0 1.3-.8 2.3-1.8 2.3s-1.8-1-1.8-2.2c.1-1.2.7-2.3 1.9-2.3zM328 42.5h1v-3.1-.5c.1-.8.7-1.4 1.4-1.4h.4v-1h-.3c-.7 0-1.3.5-1.6 1.3v-1.1h-.9v5.8zM334.2 42.6c.9 0 1.6-.2 1.9-.4l-.2-.8c-.4.2-.9.3-1.6.3-1.1 0-2-.6-2-2h4.1v-.5c0-1.1-.5-2.7-2.4-2.7-1.7 0-2.7 1.4-2.7 3.1.1 1.9 1.1 3 2.9 3zm-.2-5.3c1.2 0 1.5 1 1.5 1.7h-3.1c.1-.7.5-1.7 1.6-1.7zM337.8 42.5h1V39c0-.2 0-.4.1-.5.2-.5.6-1.1 1.3-1.1.8 0 1.2.7 1.2 1.6v3.5h1v-3.6c0-.2 0-.4.1-.5.2-.5.6-1 1.2-1 .9 0 1.3.7 1.3 1.8v3.3h1v-3.4c0-2-1.1-2.5-1.9-2.5-.6 0-.9.1-1.3.4-.2.2-.5.4-.6.8-.3-.7-.9-1.2-1.6-1.2-1 0-1.5.5-1.8 1.1v-.9h-.9V42.5zM350.3 36.7h1.1v5.8h-1.1zM350.8 35.7c.4 0 .7-.3.7-.6 0-.4-.3-.7-.6-.7-.4 0-.7.3-.7.7 0 .3.3.6.6.6zM353.2 44.9h1v-3.2c.3.6 1 .9 1.8.9 1.4 0 2.6-1 2.6-3.1 0-1.8-1.1-3-2.5-3-.9 0-1.6.4-2.1 1.1v-1h-.9v8.3zm1-5.7c0-.1 0-.3.1-.4.2-.8.9-1.3 1.6-1.3 1.1 0 1.7 1 1.7 2.2 0 1.3-.6 2.2-1.8 2.2-.8 0-1.4-.5-1.6-1.2v-1.5zM361.2 41.9c-.5 0-1.1-.2-1.4-.4l-.3.8c.4.2 1 .4 1.6.4 1.4 0 2.2-.7 2.2-1.7 0-.9-.5-1.4-1.5-1.8-.8-.3-1.1-.5-1.1-1 0-.4.3-.8 1-.8.5 0 1 .2 1.2.3l.3-.8c-.3-.2-.8-.4-1.4-.4-1.2 0-2 .8-2 1.7 0 .7.5 1.3 1.5 1.6.8.3 1.1.6 1.1 1.1 0 .6-.4 1-1.2 1zM366.7 42.7c1 0 1.6-.6 1.9-1.1l.1.9h.9V36.7h-1.1v3.6c0 .2 0 .4-.1.5-.2.5-.7 1-1.4 1-1 0-1.3-.7-1.3-1.8v-3.2h-1.1v3.4c.1 1.9 1.2 2.5 2.1 2.5zM371.3 42.5h1V39c0-.2 0-.4.1-.5.2-.5.6-1.1 1.3-1.1.8 0 1.2.7 1.2 1.6v3.5h1v-3.6c0-.2 0-.4.1-.5.2-.5.6-1 1.2-1 .9 0 1.3.7 1.3 1.8v3.3h1v-3.4c0-2-1.1-2.5-1.9-2.5-.6 0-.9.1-1.3.4-.2.2-.5.4-.6.8-.3-.7-.9-1.2-1.6-1.2-1 0-1.5.5-1.8 1.1v-.9h-.9V42.5zM386 42.7c.9 0 1.7-.5 2-1.1v1h.9v-8.5h-1.1v3.5c-.3-.5-.9-.9-1.8-.9-1.4 0-2.6 1.2-2.6 3.1.1 1.7 1.2 2.9 2.6 2.9zm.3-5.3c.8 0 1.4.6 1.5 1.2v1.9c-.2.8-.8 1.3-1.5 1.3-1.1 0-1.7-1-1.7-2.1-.1-1.3.6-2.3 1.7-2.3zM393 42.7c1.4 0 2.9-.9 2.9-3.1 0-1.8-1.1-3-2.8-3-1.6 0-2.9 1.1-2.9 3.1 0 1.8 1.3 3 2.8 3zm.1-5.3c1.2 0 1.7 1.2 1.7 2.2 0 1.3-.8 2.3-1.8 2.3s-1.8-1-1.8-2.2c.1-1.2.7-2.3 1.9-2.3zM397.3 34h1.1v8.5h-1.1zM402.4 42.7c1.4 0 2.9-.9 2.9-3.1 0-1.8-1.1-3-2.8-3-1.6 0-2.9 1.1-2.9 3.1.1 1.8 1.3 3 2.8 3zm.1-5.3c1.2 0 1.7 1.2 1.7 2.2 0 1.3-.8 2.3-1.8 2.3s-1.8-1-1.8-2.2c.1-1.2.7-2.3 1.9-2.3zM406.7 42.5h1v-3.1-.5c.1-.8.7-1.4 1.4-1.4h.4v-1h-.3c-.7 0-1.3.5-1.6 1.3v-1.1h-.9v5.8zM317.1 56.3c-.5 0-1.1-.2-1.4-.4l-.3.8c.4.2 1 .4 1.6.4 1.4 0 2.2-.7 2.2-1.7 0-.9-.5-1.4-1.5-1.8-.8-.3-1.1-.5-1.1-1 0-.4.3-.8 1-.8.5 0 1 .2 1.2.3l.3-.8c-.3-.2-.8-.4-1.4-.4-1.2 0-2 .8-2 1.7 0 .7.5 1.3 1.5 1.6.8.3 1.1.6 1.1 1.1 0 .6-.4 1-1.2 1zM321.1 50.1c.4 0 .7-.3.7-.6 0-.4-.3-.7-.6-.7-.4 0-.7.3-.7.7 0 .3.3.6.6.6zM320.6 51.1h1.1v5.8h-1.1zM324.7 49.4l-1 .3v1.4h-.9v.8h.9v3.2c0 .7.1 1.2.4 1.5.3.3.6.4 1.1.4.4 0 .7-.1.9-.1v-.8c-.1 0-.3.1-.6.1-.6 0-.8-.4-.8-1.1V52h1.5v-.8h-1.5v-1.8zM334 53.4c0-1.2-.4-2.4-2.2-2.4-.7 0-1.4.2-1.9.5l.2.7c.4-.3 1-.4 1.5-.4 1.2 0 1.3.9 1.3 1.3v.1c-2.2 0-3.5.8-3.5 2.2 0 .8.6 1.7 1.8 1.7.8 0 1.5-.4 1.8-.9l.1.7h1c-.1-.4-.1-.9-.1-1.4v-2.1zm-1 1.6c0 .1 0 .2-.1.3-.2.5-.6 1-1.4 1-.5 0-1-.3-1-1 0-1.1 1.3-1.3 2.5-1.3v1zM335.8 52.7v4.2h1v-3.5c0-.2 0-.4.1-.5.2-.5.6-1.1 1.3-1.1.8 0 1.2.7 1.2 1.6v3.5h1v-3.6c0-.2 0-.4.1-.5.2-.5.6-1 1.2-1 .9 0 1.3.7 1.3 1.8v3.3h1v-3.4c0-2-1.1-2.5-1.9-2.5-.6 0-.9.1-1.3.4-.2.2-.5.4-.6.8-.3-.7-.9-1.2-1.6-1.2-1 0-1.5.5-1.8 1.1v-.9h-.9c-.2.4-.1.9-.1 1.5zM345.3 54.1c0 1.8 1.1 2.9 2.9 2.9.9 0 1.6-.2 1.9-.4l-.2-.8c-.4.2-.9.3-1.6.3-1.1 0-2-.6-2-2h4.1v-.5c0-1.1-.5-2.7-2.4-2.7-1.6.1-2.7 1.5-2.7 3.2zm2.7-2.4c1.2 0 1.5 1 1.5 1.7h-3.1c0-.7.5-1.7 1.6-1.7zM351.1 51.9h.9v3.2c0 .7.1 1.2.4 1.5.3.3.6.4 1.1.4.4 0 .7-.1.9-.1v-.8c-.1 0-.3.1-.6.1-.6 0-.8-.4-.8-1.1V52h1.5v-.8H353v-1.7l-1 .3v1.4h-.9v.7zM355 58.4l.8-.1c.3-.6.9-1.9 1.1-2.9l-1.2.1c-.1.9-.4 2.2-.7 2.9zM360.3 54.1c0 1.8 1.1 3 2.9 3 .8 0 1.4-.2 1.7-.3l-.2-.8c-.3.1-.7.3-1.3.3-1.2 0-2-.8-2-2.2 0-1.2.7-2.2 2.1-2.2.6 0 1 .1 1.2.3l.2-.8c-.3-.1-.8-.3-1.5-.3-1.9-.1-3.1 1.2-3.1 3zM365.6 54.1c0 1.8 1.2 3 2.8 3 1.4 0 2.9-.9 2.9-3.1 0-1.8-1.1-3-2.8-3-1.6 0-2.9 1.1-2.9 3.1zm4.6-.1c0 1.3-.8 2.3-1.8 2.3s-1.8-1-1.8-2.2c0-1.1.5-2.3 1.8-2.3s1.8 1.2 1.8 2.2zM375.5 51c-1 0-1.6.5-1.9 1.1l-.1-1h-.9V56.9h1.1v-3.5c0-.2 0-.4.1-.5.2-.6.7-1.1 1.4-1.1 1 0 1.3.8 1.3 1.7v3.3h1.1v-3.5c0-1.8-1.3-2.3-2.1-2.3zM379 52.7c0 .7.5 1.3 1.5 1.6.8.3 1.1.6 1.1 1.1 0 .5-.4.9-1.1.9-.5 0-1.1-.2-1.4-.4l-.3.8c.4.2 1 .4 1.6.4 1.4 0 2.2-.7 2.2-1.7 0-.9-.5-1.4-1.5-1.8-.8-.3-1.1-.5-1.1-1 0-.4.3-.8 1-.8.5 0 1 .2 1.2.3l.3-.8c-.3-.2-.8-.4-1.4-.4-1.3.1-2.1.9-2.1 1.8zM386.3 51c-1.7 0-2.7 1.4-2.7 3.1s1.1 2.9 2.9 2.9c.9 0 1.6-.2 1.9-.4l-.2-.8c-.4.2-.9.3-1.6.3-1.1 0-2-.6-2-2h4.1v-.5c0-.9-.5-2.6-2.4-2.6zm-1.7 2.5c.1-.7.6-1.7 1.6-1.7 1.2 0 1.5 1 1.5 1.7h-3.1zM392.5 57c.8 0 1.4-.2 1.7-.3l-.2-.8c-.3.1-.7.3-1.3.3-1.2 0-2-.8-2-2.2 0-1.2.7-2.2 2.1-2.2.6 0 1 .1 1.2.3l.2-.8c-.3-.1-.8-.3-1.5-.3-1.9 0-3.1 1.3-3.1 3.1s1.2 2.9 2.9 2.9zM462 41.6h-3.4v-7.2h-1.1v8.1h4.5zM465.4 42.7c1.4 0 2.9-.9 2.9-3.1 0-1.8-1.1-3-2.8-3-1.6 0-2.9 1.1-2.9 3.1 0 1.8 1.2 3 2.8 3zm0-5.3c1.2 0 1.7 1.2 1.7 2.2 0 1.3-.8 2.3-1.8 2.3s-1.8-1-1.8-2.2c.1-1.2.7-2.3 1.9-2.3zM469.6 42.5h1v-3.1-.5c.1-.8.7-1.4 1.4-1.4h.4v-1h-.3c-.7 0-1.3.5-1.6 1.3v-1.1h-.9v5.8zM475.8 42.6c.9 0 1.6-.2 1.9-.4l-.2-.8c-.4.2-.9.3-1.6.3-1.1 0-2-.6-2-2h4.1v-.5c0-1.1-.5-2.7-2.4-2.7-1.7 0-2.7 1.4-2.7 3.1.1 1.9 1.1 3 2.9 3zm-.2-5.3c1.2 0 1.5 1 1.5 1.7H474c.1-.7.5-1.7 1.6-1.7zM479.4 42.5h1V39c0-.2 0-.4.1-.5.2-.5.6-1.1 1.3-1.1.8 0 1.2.7 1.2 1.6v3.5h1v-3.6c0-.2 0-.4.1-.5.2-.5.6-1 1.2-1 .9 0 1.3.7 1.3 1.8v3.3h1v-3.4c0-2-1.1-2.5-1.9-2.5-.6 0-.9.1-1.3.4-.2.2-.5.4-.6.8-.3-.7-.9-1.2-1.6-1.2-1 0-1.5.5-1.8 1.1v-.9h-.9V42.5zM492 36.7h1.1v5.8H492zM492.5 35.7c.4 0 .7-.3.7-.6 0-.4-.3-.7-.6-.7-.4 0-.7.3-.7.7-.1.3.2.6.6.6zM494.8 44.9h1v-3.2c.3.6 1 .9 1.8.9 1.4 0 2.6-1 2.6-3.1 0-1.8-1.1-3-2.5-3-.9 0-1.6.4-2.1 1.1v-1h-.9v8.3zm1-5.7c0-.1 0-.3.1-.4.2-.8.9-1.3 1.6-1.3 1.1 0 1.7 1 1.7 2.2 0 1.3-.6 2.2-1.8 2.2-.8 0-1.4-.5-1.6-1.2v-1.5zM502.8 41.9c-.5 0-1.1-.2-1.4-.4l-.3.8c.4.2 1 .4 1.6.4 1.4 0 2.2-.7 2.2-1.7 0-.9-.5-1.4-1.5-1.8-.8-.3-1.1-.5-1.1-1 0-.4.3-.8 1-.8.5 0 1 .2 1.2.3l.3-.8c-.3-.2-.8-.4-1.4-.4-1.2 0-2 .8-2 1.7 0 .7.5 1.3 1.5 1.6.8.3 1.1.6 1.1 1.1 0 .6-.4 1-1.2 1zM508.3 42.7c1 0 1.6-.6 1.9-1.1l.1.9h.9V36.7h-1.1v3.6c0 .2 0 .4-.1.5-.2.5-.7 1-1.4 1-1 0-1.3-.7-1.3-1.8v-3.2h-1.1v3.4c.1 1.9 1.2 2.5 2.1 2.5zM513 42.5h1V39c0-.2 0-.4.1-.5.2-.5.6-1.1 1.3-1.1.8 0 1.2.7 1.2 1.6v3.5h1v-3.6c0-.2 0-.4.1-.5.2-.5.6-1 1.2-1 .9 0 1.3.7 1.3 1.8v3.3h1v-3.4c0-2-1.1-2.5-1.9-2.5-.6 0-.9.1-1.3.4-.2.2-.5.4-.6.8-.3-.7-.9-1.2-1.6-1.2-1 0-1.5.5-1.8 1.1v-.9h-.9V42.5zM527.6 42.7c.9 0 1.7-.5 2-1.1v1h.9v-8.5h-1.1v3.5c-.3-.5-.9-.9-1.8-.9-1.4 0-2.6 1.2-2.6 3.1.1 1.7 1.2 2.9 2.6 2.9zm.3-5.3c.8 0 1.4.6 1.5 1.2v1.9c-.2.8-.8 1.3-1.5 1.3-1.1 0-1.7-1-1.7-2.1 0-1.3.6-2.3 1.7-2.3zM534.6 42.7c1.4 0 2.9-.9 2.9-3.1 0-1.8-1.1-3-2.8-3-1.6 0-2.9 1.1-2.9 3.1.1 1.8 1.3 3 2.8 3zm.1-5.3c1.2 0 1.7 1.2 1.7 2.2 0 1.3-.8 2.3-1.8 2.3s-1.8-1-1.8-2.2c.1-1.2.7-2.3 1.9-2.3zM538.9 34h1.1v8.5h-1.1zM544.1 42.7c1.4 0 2.9-.9 2.9-3.1 0-1.8-1.1-3-2.8-3-1.6 0-2.9 1.1-2.9 3.1 0 1.8 1.2 3 2.8 3zm0-5.3c1.2 0 1.7 1.2 1.7 2.2 0 1.3-.8 2.3-1.8 2.3s-1.8-1-1.8-2.2c.1-1.2.7-2.3 1.9-2.3zM548.3 42.5h1v-3.1-.5c.1-.8.7-1.4 1.4-1.4h.4v-1h-.3c-.7 0-1.3.5-1.6 1.3v-1.1h-.9v5.8zM458.7 56.3c-.5 0-1.1-.2-1.4-.4l-.3.8c.4.2 1 .4 1.6.4 1.4 0 2.2-.7 2.2-1.7 0-.9-.5-1.4-1.5-1.8-.8-.3-1.1-.5-1.1-1 0-.4.3-.8 1-.8.5 0 1 .2 1.2.3l.3-.8c-.3-.2-.8-.4-1.4-.4-1.2 0-2 .8-2 1.7 0 .7.5 1.3 1.5 1.6.8.3 1.1.6 1.1 1.1 0 .6-.4 1-1.2 1zM462.3 51.1h1.1v5.8h-1.1zM462.8 50.1c.4 0 .7-.3.7-.6 0-.4-.3-.7-.6-.7-.4 0-.7.3-.7.7-.1.3.2.6.6.6zM466.3 49.4l-1 .3v1.4h-.9v.8h.9v3.2c0 .7.1 1.2.4 1.5.3.3.6.4 1.1.4.4 0 .7-.1.9-.1v-.8c-.1 0-.3.1-.6.1-.6 0-.8-.4-.8-1.1V52h1.5v-.8h-1.5v-1.8zM475.7 53.4c0-1.2-.4-2.4-2.2-2.4-.7 0-1.4.2-1.9.5l.2.7c.4-.3 1-.4 1.5-.4 1.2 0 1.3.9 1.3 1.3v.1c-2.2 0-3.5.8-3.5 2.2 0 .8.6 1.7 1.8 1.7.8 0 1.5-.4 1.8-.9l.1.7h1c-.1-.4-.1-.9-.1-1.4v-2.1zm-1.1 1.6c0 .1 0 .2-.1.3-.2.5-.6 1-1.4 1-.5 0-1-.3-1-1 0-1.1 1.3-1.3 2.5-1.3v1zM477.4 52.7v4.2h1v-3.5c0-.2 0-.4.1-.5.2-.5.6-1.1 1.3-1.1.8 0 1.2.7 1.2 1.6v3.5h1v-3.6c0-.2 0-.4.1-.5.2-.5.6-1 1.2-1 .9 0 1.3.7 1.3 1.8v3.3h1v-3.4c0-2-1.1-2.5-1.9-2.5-.6 0-.9.1-1.3.4-.2.2-.5.4-.6.8-.3-.7-.9-1.2-1.6-1.2-1 0-1.5.5-1.8 1.1v-.9h-.9c-.2.4-.1.9-.1 1.5zM486.9 54.1c0 1.8 1.1 2.9 2.9 2.9.9 0 1.6-.2 1.9-.4l-.2-.8c-.4.2-.9.3-1.6.3-1.1 0-2-.6-2-2h4.1v-.5c0-1.1-.5-2.7-2.4-2.7-1.6.1-2.7 1.5-2.7 3.2zm2.7-2.4c1.2 0 1.5 1 1.5 1.7H488c.1-.7.5-1.7 1.6-1.7zM492.7 51.9h.9v3.2c0 .7.1 1.2.4 1.5.3.3.6.4 1.1.4.4 0 .7-.1.9-.1v-.8c-.1 0-.3.1-.6.1-.6 0-.8-.4-.8-1.1V52h1.5v-.8h-1.5v-1.7l-1 .3v1.4h-.9v.7zM496.6 58.4l.8-.1c.3-.6.9-1.9 1.1-2.9l-1.2.1c-.1.9-.4 2.2-.7 2.9zM501.9 54.1c0 1.8 1.1 3 2.9 3 .8 0 1.4-.2 1.7-.3l-.2-.8c-.3.1-.7.3-1.3.3-1.2 0-2-.8-2-2.2 0-1.2.7-2.2 2.1-2.2.6 0 1 .1 1.2.3l.2-.8c-.3-.1-.8-.3-1.5-.3-1.9-.1-3.1 1.2-3.1 3zM507.2 54.1c0 1.8 1.2 3 2.8 3 1.4 0 2.9-.9 2.9-3.1 0-1.8-1.1-3-2.8-3-1.6 0-2.9 1.1-2.9 3.1zm4.6-.1c0 1.3-.8 2.3-1.8 2.3s-1.8-1-1.8-2.2c0-1.1.5-2.3 1.8-2.3s1.8 1.2 1.8 2.2zM517.1 51c-1 0-1.6.5-1.9 1.1l-.1-1h-.9V56.9h1.1v-3.5c0-.2 0-.4.1-.5.2-.6.7-1.1 1.4-1.1 1 0 1.3.8 1.3 1.7v3.3h1.1v-3.5c0-1.8-1.3-2.3-2.1-2.3zM520.7 52.7c0 .7.5 1.3 1.5 1.6.8.3 1.1.6 1.1 1.1 0 .5-.4.9-1.1.9-.5 0-1.1-.2-1.4-.4l-.3.8c.4.2 1 .4 1.6.4 1.4 0 2.2-.7 2.2-1.7 0-.9-.5-1.4-1.5-1.8-.8-.3-1.1-.5-1.1-1 0-.4.3-.8 1-.8.5 0 1 .2 1.2.3l.3-.8c-.3-.2-.8-.4-1.4-.4-1.4.1-2.1.9-2.1 1.8zM528 51c-1.7 0-2.7 1.4-2.7 3.1s1.1 2.9 2.9 2.9c.9 0 1.6-.2 1.9-.4l-.2-.8c-.4.2-.9.3-1.6.3-1.1 0-2-.6-2-2h4.1v-.5c-.1-.9-.6-2.6-2.4-2.6zm-1.8 2.5c.1-.7.6-1.7 1.6-1.7 1.2 0 1.5 1 1.5 1.7h-3.1zM534.1 57c.8 0 1.4-.2 1.7-.3l-.2-.8c-.3.1-.7.3-1.3.3-1.2 0-2-.8-2-2.2 0-1.2.7-2.2 2.1-2.2.6 0 1 .1 1.2.3l.2-.8c-.3-.1-.8-.3-1.5-.3-1.9 0-3.1 1.3-3.1 3.1s1.2 2.9 2.9 2.9z"/><path fill="none" d="M31 84.5h94v25H31z"/><text transform="translate(31 93.02)">Sample</text><path fill="none" d="M145.4 84.5h134.1v25H145.4z"/><text transform="translate(145.426 93.02)">Sample</text><path fill="none" d="M298 84.5h134.1v25H298z"/><text transform="translate(297.98 93.02)">Sample</text><path fill="none" d="M449.6 84.5h115.9v25H449.6z"/><text transform="translate(449.647 93.02)">Sample</text><path fill="none" d="M449.6 126h115.9v33.5H449.6z"/><text transform="translate(449.647 134.52)">Sample</text><path fill="none" d="M449.6 174h115.9v33.5H449.6z"/><text transform="translate(449.647 182.476)">Sample</text><path fill="none" d="M449.6 219.4h115.9v33.5H449.6z"/><text transform="translate(449.647 227.9)">Sample</text><path fill="none" d="M298 126h135v33.5H298z"/><text transform="translate(297.98 134.52)">Sample</text><path fill="none" d="M298 174h135v33.5H298z"/><text transform="translate(297.98 182.476)">Sample</text><path fill="none" d="M298 219.4h135v33.5H298z"/><text transform="translate(297.98 227.9)">Sample</text><path fill="none" d="M145 126h135v33.5H145z"/><text transform="translate(144.952 134.52)">Sample</text><path fill="none" d="M145 174h135v33.5H145z"/><text transform="translate(144.952 182.476)">Sample</text><path fill="none" d="M145 219.4h135v33.5H145z"/><text transform="translate(144.952 227.9)">Sample</text><g><path fill="none" d="M30.4 219.4h97.1v33.5H30.4z"/><text transform="translate(30.448 227.9)">Sample</text></g><g><path fill="none" d="M30.4 174h97.1v33.5H30.4z"/><text transform="translate(30.448 182.476)">Sample</text></g><g><path fill="none" d="M30.4 126h97.1v33.5H30.4z"/><text transform="translate(30.448 134.52)">Sample</text></g></symbol></svg>