<svg version="1.1" xmlns="http://www.w3.org/2000/svg" xmlns:xlink="http://www.w3.org/1999/xlink" x="0px" y="0px" width="595.3px"
	 height="841.9px" viewBox="0 0 595.3 841.9" enable-background="new 0 0 595.3 841.9" xml:space="preserve">
<g id="Layer_1">
	<g id="table_x5F_body">
		<path d="M22,24.3v236.1h550.4V24.3H22z M135.8,259.6h-113v-47h113V259.6z M135.8,211.6h-113v-41.9h113V211.6z M135.8,168.8h-113
			v-48.6h113V168.8z M135.8,119.2h-113V72.3h113V119.2z M135.8,71.3h-113V25.1h113V71.3z M288.3,259.6H136.6v-47h151.7V259.6z
			 M288.3,211.6H136.6v-41.9h151.7V211.6z M288.3,168.8H136.6v-48.6h151.7V168.8z M288.3,119.2H136.6V72.3h151.7V119.2z M288.3,71.3
			H136.6V25.1h151.7V71.3z M440.9,259.6H289.2v-47h151.7V259.6z M440.9,211.6H289.2v-41.9h151.7V211.6z M440.9,168.8H289.2v-48.6
			h151.7V168.8z M440.9,119.2H289.2V72.3h151.7V119.2z M440.9,71.3H289.2V25.1h151.7V71.3z M571.6,259.6H441.7v-47h129.9V259.6z
			 M571.6,211.6H441.7v-41.9h129.9V211.6z M571.6,168.8H441.7v-48.6h129.9V168.8z M571.6,119.2H441.7V72.3h129.9V119.2z M571.6,71.3
			H441.7V25.1h129.9V71.3z"/>
		<polygon points="34.9,41.6 31.5,41.6 31.5,34.4 30.4,34.4 30.4,42.5 34.9,42.5 		"/>
		<path d="M38.2,42.7c1.4,0,2.9-0.9,2.9-3.1c0-1.8-1.1-3-2.8-3c-1.6,0-2.9,1.1-2.9,3.1C35.5,41.5,36.7,42.7,38.2,42.7z M38.3,37.4
			c1.2,0,1.7,1.2,1.7,2.2c0,1.3-0.8,2.3-1.8,2.3c-1,0-1.8-1-1.8-2.2C36.5,38.5,37.1,37.4,38.3,37.4z"/>
		<path d="M42.5,42.5h1v-3.1c0-0.2,0-0.3,0-0.5c0.1-0.8,0.7-1.4,1.4-1.4c0.1,0,0.3,0,0.4,0v-1c-0.1,0-0.2,0-0.3,0
			c-0.7,0-1.3,0.5-1.6,1.3h0l0-1.1h-0.9c0,0.5,0,1.1,0,1.8V42.5z"/>
		<path d="M48.7,42.6c0.9,0,1.6-0.2,1.9-0.4l-0.2-0.8c-0.4,0.2-0.9,0.3-1.6,0.3c-1.1,0-2-0.6-2-2h4.1c0-0.1,0-0.3,0-0.5
			c0-1.1-0.5-2.7-2.4-2.7c-1.7,0-2.7,1.4-2.7,3.1C45.8,41.5,46.9,42.6,48.7,42.6z M48.5,37.3c1.2,0,1.5,1,1.5,1.7h-3.1
			C46.9,38.3,47.4,37.3,48.5,37.3z"/>
		<path d="M52.3,42.5h1V39c0-0.2,0-0.4,0.1-0.5c0.2-0.5,0.6-1.1,1.3-1.1c0.8,0,1.2,0.7,1.2,1.6v3.5h1v-3.6c0-0.2,0-0.4,0.1-0.5
			c0.2-0.5,0.6-1,1.2-1c0.9,0,1.3,0.7,1.3,1.8v3.3h1v-3.4c0-2-1.1-2.5-1.9-2.5c-0.6,0-0.9,0.1-1.3,0.4c-0.2,0.2-0.5,0.4-0.6,0.8h0
			c-0.3-0.7-0.9-1.2-1.6-1.2c-1,0-1.5,0.5-1.8,1.1h0l0-0.9h-0.9c0,0.5,0,1,0,1.6V42.5z"/>
		<rect x="64.8" y="36.7" width="1.1" height="5.8"/>
		<path d="M65.3,35.7c0.4,0,0.7-0.3,0.7-0.6c0-0.4-0.3-0.7-0.6-0.7c-0.4,0-0.7,0.3-0.7,0.7C64.7,35.4,65,35.7,65.3,35.7z"/>
		<path d="M67.6,44.9h1v-3.2h0c0.3,0.6,1,0.9,1.8,0.9c1.4,0,2.6-1,2.6-3.1c0-1.8-1.1-3-2.5-3c-0.9,0-1.6,0.4-2.1,1.1h0l0-1h-0.9
			c0,0.6,0,1.2,0,1.9V44.9z M68.7,39.2c0-0.1,0-0.3,0.1-0.4c0.2-0.8,0.9-1.3,1.6-1.3c1.1,0,1.7,1,1.7,2.2c0,1.3-0.6,2.2-1.8,2.2
			c-0.8,0-1.4-0.5-1.6-1.2c0-0.1,0-0.3,0-0.4V39.2z"/>
		<path d="M75.7,41.9c-0.5,0-1.1-0.2-1.4-0.4l-0.3,0.8c0.4,0.2,1,0.4,1.6,0.4c1.4,0,2.2-0.7,2.2-1.7c0-0.9-0.5-1.4-1.5-1.8
			c-0.8-0.3-1.1-0.5-1.1-1c0-0.4,0.3-0.8,1-0.8c0.5,0,1,0.2,1.2,0.3l0.3-0.8c-0.3-0.2-0.8-0.4-1.4-0.4c-1.2,0-2,0.8-2,1.7
			c0,0.7,0.5,1.3,1.5,1.6c0.8,0.3,1.1,0.6,1.1,1.1C76.8,41.5,76.5,41.9,75.7,41.9z"/>
		<path d="M81.2,42.7c1,0,1.6-0.6,1.9-1.1h0l0.1,0.9h0.9c0-0.5,0-1,0-1.6v-4.2H83v3.6c0,0.2,0,0.4-0.1,0.5c-0.2,0.5-0.7,1-1.4,1
			c-1,0-1.3-0.7-1.3-1.8v-3.2h-1.1v3.4C79.2,42.1,80.3,42.7,81.2,42.7z"/>
		<path d="M85.8,42.5h1V39c0-0.2,0-0.4,0.1-0.5c0.2-0.5,0.6-1.1,1.3-1.1c0.8,0,1.2,0.7,1.2,1.6v3.5h1v-3.6c0-0.2,0-0.4,0.1-0.5
			c0.2-0.5,0.6-1,1.2-1c0.9,0,1.3,0.7,1.3,1.8v3.3h1v-3.4c0-2-1.1-2.5-1.9-2.5c-0.6,0-0.9,0.1-1.3,0.4c-0.2,0.2-0.5,0.4-0.6,0.8h0
			c-0.3-0.7-0.9-1.2-1.6-1.2c-1,0-1.5,0.5-1.8,1.1h0l0-0.9h-0.9c0,0.5,0,1,0,1.6V42.5z"/>
		<path d="M100.4,42.7c0.9,0,1.7-0.5,2-1.1h0l0,1h0.9c0-0.4,0-1,0-1.5v-7h-1.1v3.5h0c-0.3-0.5-0.9-0.9-1.8-0.9
			c-1.4,0-2.6,1.2-2.6,3.1C98,41.5,99,42.7,100.4,42.7z M100.8,37.4c0.8,0,1.4,0.6,1.5,1.2c0,0.1,0,0.3,0,0.4v1c0,0.2,0,0.3,0,0.5
			c-0.2,0.8-0.8,1.3-1.5,1.3c-1.1,0-1.7-1-1.7-2.1C99,38.4,99.7,37.4,100.8,37.4z"/>
		<path d="M107.5,42.7c1.4,0,2.9-0.9,2.9-3.1c0-1.8-1.1-3-2.8-3c-1.6,0-2.9,1.1-2.9,3.1C104.7,41.5,105.9,42.7,107.5,42.7z
			 M107.6,37.4c1.2,0,1.7,1.2,1.7,2.2c0,1.3-0.8,2.3-1.8,2.3c-1,0-1.8-1-1.8-2.2C105.8,38.5,106.3,37.4,107.6,37.4z"/>
		<rect x="111.7" y="34" width="1.1" height="8.5"/>
		<path d="M116.9,42.7c1.4,0,2.9-0.9,2.9-3.1c0-1.8-1.1-3-2.8-3c-1.6,0-2.9,1.1-2.9,3.1C114.1,41.5,115.4,42.7,116.9,42.7z
			 M117,37.4c1.2,0,1.7,1.2,1.7,2.2c0,1.3-0.8,2.3-1.8,2.3c-1,0-1.8-1-1.8-2.2C115.2,38.5,115.8,37.4,117,37.4z"/>
		<path d="M121.2,42.5h1v-3.1c0-0.2,0-0.3,0-0.5c0.1-0.8,0.7-1.4,1.4-1.4c0.1,0,0.3,0,0.4,0v-1c-0.1,0-0.2,0-0.3,0
			c-0.7,0-1.3,0.5-1.6,1.3h0l0-1.1h-0.9c0,0.5,0,1.1,0,1.8V42.5z"/>
		<path d="M31.6,56.3c-0.5,0-1.1-0.2-1.4-0.4L30,56.6c0.4,0.2,1,0.4,1.6,0.4c1.4,0,2.2-0.7,2.2-1.7c0-0.9-0.5-1.4-1.5-1.8
			c-0.8-0.3-1.1-0.5-1.1-1c0-0.4,0.3-0.8,1-0.8c0.5,0,1,0.2,1.2,0.3l0.3-0.8c-0.3-0.2-0.8-0.4-1.4-0.4c-1.2,0-2,0.8-2,1.7
			c0,0.7,0.5,1.3,1.5,1.6c0.8,0.3,1.1,0.6,1.1,1.1C32.8,55.9,32.4,56.3,31.6,56.3z"/>
		<rect x="35.1" y="51.1" width="1.1" height="5.8"/>
		<path d="M35.6,50.1c0.4,0,0.7-0.3,0.7-0.6c0-0.4-0.3-0.7-0.6-0.7c-0.4,0-0.7,0.3-0.7,0.7C35,49.8,35.3,50.1,35.6,50.1z"/>
		<path d="M39.2,49.4l-1,0.3v1.4h-0.9v0.8h0.9v3.2c0,0.7,0.1,1.2,0.4,1.5c0.3,0.3,0.6,0.4,1.1,0.4c0.4,0,0.7-0.1,0.9-0.1l0-0.8
			c-0.1,0-0.3,0.1-0.6,0.1c-0.6,0-0.8-0.4-0.8-1.1v-3.1h1.5v-0.8h-1.5V49.4z"/>
		<path d="M48.5,53.4c0-1.2-0.4-2.4-2.2-2.4c-0.7,0-1.4,0.2-1.9,0.5l0.2,0.7c0.4-0.3,1-0.4,1.5-0.4c1.2,0,1.3,0.9,1.3,1.3v0.1
			c-2.2,0-3.5,0.8-3.5,2.2c0,0.8,0.6,1.7,1.8,1.7c0.8,0,1.5-0.4,1.8-0.9h0l0.1,0.7h1c-0.1-0.4-0.1-0.9-0.1-1.4V53.4z M47.5,55
			c0,0.1,0,0.2-0.1,0.3c-0.2,0.5-0.6,1-1.4,1c-0.5,0-1-0.3-1-1c0-1.1,1.3-1.3,2.5-1.3V55z"/>
		<path d="M50.2,52.7v4.2h1v-3.5c0-0.2,0-0.4,0.1-0.5c0.2-0.5,0.6-1.1,1.3-1.1c0.8,0,1.2,0.7,1.2,1.6v3.5h1v-3.6
			c0-0.2,0-0.4,0.1-0.5c0.2-0.5,0.6-1,1.2-1c0.9,0,1.3,0.7,1.3,1.8v3.3h1v-3.4c0-2-1.1-2.5-1.9-2.5c-0.6,0-0.9,0.1-1.3,0.4
			c-0.2,0.2-0.5,0.4-0.6,0.8h0C54.4,51.5,53.8,51,53,51c-1,0-1.5,0.5-1.8,1.1h0l0-0.9h-0.9C50.2,51.6,50.2,52.1,50.2,52.7z"/>
		<path d="M59.8,54.1c0,1.8,1.1,2.9,2.9,2.9c0.9,0,1.6-0.2,1.9-0.4l-0.2-0.8c-0.4,0.2-0.9,0.3-1.6,0.3c-1.1,0-2-0.6-2-2h4.1
			c0-0.1,0-0.3,0-0.5c0-1.1-0.5-2.7-2.4-2.7C60.9,51,59.8,52.4,59.8,54.1z M62.5,51.7c1.2,0,1.5,1,1.5,1.7h-3.1
			C60.9,52.7,61.4,51.7,62.5,51.7z"/>
		<path d="M65.6,51.9h0.9v3.2c0,0.7,0.1,1.2,0.4,1.5c0.3,0.3,0.6,0.4,1.1,0.4c0.4,0,0.7-0.1,0.9-0.1l0-0.8c-0.1,0-0.3,0.1-0.6,0.1
			c-0.6,0-0.8-0.4-0.8-1.1v-3.1H69v-0.8h-1.5v-1.7l-1,0.3v1.4h-0.9V51.9z"/>
		<path d="M69.5,58.4l0.8-0.1c0.3-0.6,0.9-1.9,1.1-2.9l-1.2,0.1C70.1,56.4,69.8,57.7,69.5,58.4z"/>
		<path d="M74.8,54.1c0,1.8,1.1,3,2.9,3c0.8,0,1.4-0.2,1.7-0.3l-0.2-0.8c-0.3,0.1-0.7,0.3-1.3,0.3c-1.2,0-2-0.8-2-2.2
			c0-1.2,0.7-2.2,2.1-2.2c0.6,0,1,0.1,1.2,0.3l0.2-0.8c-0.3-0.1-0.8-0.3-1.5-0.3C76,51,74.8,52.3,74.8,54.1z"/>
		<path d="M80.1,54.1c0,1.8,1.2,3,2.8,3c1.4,0,2.9-0.9,2.9-3.1c0-1.8-1.1-3-2.8-3C81.4,51,80.1,52.1,80.1,54.1z M84.7,54
			c0,1.3-0.8,2.3-1.8,2.3c-1,0-1.8-1-1.8-2.2c0-1.1,0.5-2.3,1.8-2.3C84.2,51.8,84.7,53,84.7,54z"/>
		<path d="M90,51c-1,0-1.6,0.5-1.9,1.1h0l-0.1-1h-0.9c0,0.5,0,1,0,1.6v4.2h1.1v-3.5c0-0.2,0-0.4,0.1-0.5c0.2-0.6,0.7-1.1,1.4-1.1
			c1,0,1.3,0.8,1.3,1.7v3.3h1.1v-3.5C92.1,51.5,90.8,51,90,51z"/>
		<path d="M93.5,52.7c0,0.7,0.5,1.3,1.5,1.6c0.8,0.3,1.1,0.6,1.1,1.1c0,0.5-0.4,0.9-1.1,0.9c-0.5,0-1.1-0.2-1.4-0.4l-0.3,0.8
			c0.4,0.2,1,0.4,1.6,0.4c1.4,0,2.2-0.7,2.2-1.7c0-0.9-0.5-1.4-1.5-1.8c-0.8-0.3-1.1-0.5-1.1-1c0-0.4,0.3-0.8,1-0.8
			c0.5,0,1,0.2,1.2,0.3l0.3-0.8c-0.3-0.2-0.8-0.4-1.4-0.4C94.3,51,93.5,51.8,93.5,52.7z"/>
		<path d="M100.8,51c-1.7,0-2.7,1.4-2.7,3.1S99.2,57,101,57c0.9,0,1.6-0.2,1.9-0.4l-0.2-0.8c-0.4,0.2-0.9,0.3-1.6,0.3
			c-1.1,0-2-0.6-2-2h4.1c0-0.1,0-0.3,0-0.5C103.2,52.7,102.7,51,100.8,51z M99.1,53.5c0.1-0.7,0.6-1.7,1.6-1.7c1.2,0,1.5,1,1.5,1.7
			H99.1z"/>
		<path d="M107,57c0.8,0,1.4-0.2,1.7-0.3l-0.2-0.8c-0.3,0.1-0.7,0.3-1.3,0.3c-1.2,0-2-0.8-2-2.2c0-1.2,0.7-2.2,2.1-2.2
			c0.6,0,1,0.1,1.2,0.3l0.2-0.8c-0.3-0.1-0.8-0.3-1.5-0.3c-1.9,0-3.1,1.3-3.1,3.1C104.1,55.9,105.3,57,107,57z"/>
		<polygon points="163.4,41.6 160,41.6 160,34.4 158.9,34.4 158.9,42.5 163.4,42.5 		"/>
		<path d="M166.7,42.7c1.4,0,2.9-0.9,2.9-3.1c0-1.8-1.1-3-2.8-3c-1.6,0-2.9,1.1-2.9,3.1C164,41.5,165.2,42.7,166.7,42.7z
			 M166.8,37.4c1.2,0,1.7,1.2,1.7,2.2c0,1.3-0.8,2.3-1.8,2.3c-1,0-1.8-1-1.8-2.2C165,38.5,165.6,37.4,166.8,37.4z"/>
		<path d="M171,42.5h1v-3.1c0-0.2,0-0.3,0-0.5c0.1-0.8,0.7-1.4,1.4-1.4c0.1,0,0.3,0,0.4,0v-1c-0.1,0-0.2,0-0.3,0
			c-0.7,0-1.3,0.5-1.6,1.3h0l0-1.1h-0.9c0,0.5,0,1.1,0,1.8V42.5z"/>
		<path d="M177.2,42.6c0.9,0,1.6-0.2,1.9-0.4l-0.2-0.8c-0.4,0.2-0.9,0.3-1.6,0.3c-1.1,0-2-0.6-2-2h4.1c0-0.1,0-0.3,0-0.5
			c0-1.1-0.5-2.7-2.4-2.7c-1.7,0-2.7,1.4-2.7,3.1C174.3,41.5,175.4,42.6,177.2,42.6z M177,37.3c1.2,0,1.5,1,1.5,1.7h-3.1
			C175.4,38.3,175.9,37.3,177,37.3z"/>
		<path d="M180.8,42.5h1V39c0-0.2,0-0.4,0.1-0.5c0.2-0.5,0.6-1.1,1.3-1.1c0.8,0,1.2,0.7,1.2,1.6v3.5h1v-3.6c0-0.2,0-0.4,0.1-0.5
			c0.2-0.5,0.6-1,1.2-1c0.9,0,1.3,0.7,1.3,1.8v3.3h1v-3.4c0-2-1.1-2.5-1.9-2.5c-0.6,0-0.9,0.1-1.3,0.4c-0.2,0.2-0.5,0.4-0.6,0.8h0
			c-0.3-0.7-0.9-1.2-1.6-1.2c-1,0-1.5,0.5-1.8,1.1h0l0-0.9h-0.9c0,0.5,0,1,0,1.6V42.5z"/>
		<rect x="193.3" y="36.7" width="1.1" height="5.8"/>
		<path d="M193.8,35.7c0.4,0,0.7-0.3,0.7-0.6c0-0.4-0.3-0.7-0.6-0.7c-0.4,0-0.7,0.3-0.7,0.7C193.2,35.4,193.5,35.7,193.8,35.7z"/>
		<path d="M196.1,44.9h1v-3.2h0c0.3,0.6,1,0.9,1.8,0.9c1.4,0,2.6-1,2.6-3.1c0-1.8-1.1-3-2.5-3c-0.9,0-1.6,0.4-2.1,1.1h0l0-1h-0.9
			c0,0.6,0,1.2,0,1.9V44.9z M197.2,39.2c0-0.1,0-0.3,0.1-0.4c0.2-0.8,0.9-1.3,1.6-1.3c1.1,0,1.7,1,1.7,2.2c0,1.3-0.6,2.2-1.8,2.2
			c-0.8,0-1.4-0.5-1.6-1.2c0-0.1,0-0.3,0-0.4V39.2z"/>
		<path d="M204.2,41.9c-0.5,0-1.1-0.2-1.4-0.4l-0.3,0.8c0.4,0.2,1,0.4,1.6,0.4c1.4,0,2.2-0.7,2.2-1.7c0-0.9-0.5-1.4-1.5-1.8
			c-0.8-0.3-1.1-0.5-1.1-1c0-0.4,0.3-0.8,1-0.8c0.5,0,1,0.2,1.2,0.3l0.3-0.8c-0.3-0.2-0.8-0.4-1.4-0.4c-1.2,0-2,0.8-2,1.7
			c0,0.7,0.5,1.3,1.5,1.6c0.8,0.3,1.1,0.6,1.1,1.1C205.3,41.5,205,41.9,204.2,41.9z"/>
		<path d="M209.7,42.7c1,0,1.6-0.6,1.9-1.1h0l0.1,0.9h0.9c0-0.5,0-1,0-1.6v-4.2h-1.1v3.6c0,0.2,0,0.4-0.1,0.5c-0.2,0.5-0.7,1-1.4,1
			c-1,0-1.3-0.7-1.3-1.8v-3.2h-1.1v3.4C207.7,42.1,208.8,42.7,209.7,42.7z"/>
		<path d="M214.3,42.5h1V39c0-0.2,0-0.4,0.1-0.5c0.2-0.5,0.6-1.1,1.3-1.1c0.8,0,1.2,0.7,1.2,1.6v3.5h1v-3.6c0-0.2,0-0.4,0.1-0.5
			c0.2-0.5,0.6-1,1.2-1c0.9,0,1.3,0.7,1.3,1.8v3.3h1v-3.4c0-2-1.1-2.5-1.9-2.5c-0.6,0-0.9,0.1-1.3,0.4c-0.2,0.2-0.5,0.4-0.6,0.8h0
			c-0.3-0.7-0.9-1.2-1.6-1.2c-1,0-1.5,0.5-1.8,1.1h0l0-0.9h-0.9c0,0.5,0,1,0,1.6V42.5z"/>
		<path d="M228.9,42.7c0.9,0,1.7-0.5,2-1.1h0l0,1h0.9c0-0.4,0-1,0-1.5v-7h-1.1v3.5h0c-0.3-0.5-0.9-0.9-1.8-0.9
			c-1.4,0-2.6,1.2-2.6,3.1C226.5,41.5,227.5,42.7,228.9,42.7z M229.3,37.4c0.8,0,1.4,0.6,1.5,1.2c0,0.1,0,0.3,0,0.4v1
			c0,0.2,0,0.3,0,0.5c-0.2,0.8-0.8,1.3-1.5,1.3c-1.1,0-1.7-1-1.7-2.1C227.5,38.4,228.2,37.4,229.3,37.4z"/>
		<path d="M236,42.7c1.4,0,2.9-0.9,2.9-3.1c0-1.8-1.1-3-2.8-3c-1.6,0-2.9,1.1-2.9,3.1C233.2,41.5,234.4,42.7,236,42.7z M236.1,37.4
			c1.2,0,1.7,1.2,1.7,2.2c0,1.3-0.8,2.3-1.8,2.3c-1,0-1.8-1-1.8-2.2C234.3,38.5,234.8,37.4,236.1,37.4z"/>
		<rect x="240.2" y="34" width="1.1" height="8.5"/>
		<path d="M245.4,42.7c1.4,0,2.9-0.9,2.9-3.1c0-1.8-1.1-3-2.8-3c-1.6,0-2.9,1.1-2.9,3.1C242.6,41.5,243.9,42.7,245.4,42.7z
			 M245.5,37.4c1.2,0,1.7,1.2,1.7,2.2c0,1.3-0.8,2.3-1.8,2.3c-1,0-1.8-1-1.8-2.2C243.7,38.5,244.3,37.4,245.5,37.4z"/>
		<path d="M249.7,42.5h1v-3.1c0-0.2,0-0.3,0-0.5c0.1-0.8,0.7-1.4,1.4-1.4c0.1,0,0.3,0,0.4,0v-1c-0.1,0-0.2,0-0.3,0
			c-0.7,0-1.3,0.5-1.6,1.3h0l0-1.1h-0.9c0,0.5,0,1.1,0,1.8V42.5z"/>
		<path d="M160.1,56.3c-0.5,0-1.1-0.2-1.4-0.4l-0.3,0.8c0.4,0.2,1,0.4,1.6,0.4c1.4,0,2.2-0.7,2.2-1.7c0-0.9-0.5-1.4-1.5-1.8
			c-0.8-0.3-1.1-0.5-1.1-1c0-0.4,0.3-0.8,1-0.8c0.5,0,1,0.2,1.2,0.3l0.3-0.8c-0.3-0.2-0.8-0.4-1.4-0.4c-1.2,0-2,0.8-2,1.7
			c0,0.7,0.5,1.3,1.5,1.6c0.8,0.3,1.1,0.6,1.1,1.1C161.3,55.9,160.9,56.3,160.1,56.3z"/>
		<path d="M164.1,50.1c0.4,0,0.7-0.3,0.7-0.6c0-0.4-0.3-0.7-0.6-0.7c-0.4,0-0.7,0.3-0.7,0.7C163.5,49.8,163.8,50.1,164.1,50.1z"/>
		<rect x="163.6" y="51.1" width="1.1" height="5.8"/>
		<path d="M167.7,49.4l-1,0.3v1.4h-0.9v0.8h0.9v3.2c0,0.7,0.1,1.2,0.4,1.5c0.3,0.3,0.6,0.4,1.1,0.4c0.4,0,0.7-0.1,0.9-0.1l0-0.8
			c-0.1,0-0.3,0.1-0.6,0.1c-0.6,0-0.8-0.4-0.8-1.1v-3.1h1.5v-0.8h-1.5V49.4z"/>
		<path d="M177,53.4c0-1.2-0.4-2.4-2.2-2.4c-0.7,0-1.4,0.2-1.9,0.5l0.2,0.7c0.4-0.3,1-0.4,1.5-0.4c1.2,0,1.3,0.9,1.3,1.3v0.1
			c-2.2,0-3.5,0.8-3.5,2.2c0,0.8,0.6,1.7,1.8,1.7c0.8,0,1.5-0.4,1.8-0.9h0l0.1,0.7h1c-0.1-0.4-0.1-0.9-0.1-1.4V53.4z M176,55
			c0,0.1,0,0.2-0.1,0.3c-0.2,0.5-0.6,1-1.4,1c-0.5,0-1-0.3-1-1c0-1.1,1.3-1.3,2.5-1.3V55z"/>
		<path d="M178.7,52.7v4.2h1v-3.5c0-0.2,0-0.4,0.1-0.5c0.2-0.5,0.6-1.1,1.3-1.1c0.8,0,1.2,0.7,1.2,1.6v3.5h1v-3.6
			c0-0.2,0-0.4,0.1-0.5c0.2-0.5,0.6-1,1.2-1c0.9,0,1.3,0.7,1.3,1.8v3.3h1v-3.4c0-2-1.1-2.5-1.9-2.5c-0.6,0-0.9,0.1-1.3,0.4
			c-0.2,0.2-0.5,0.4-0.6,0.8h0c-0.3-0.7-0.9-1.2-1.6-1.2c-1,0-1.5,0.5-1.8,1.1h0l0-0.9h-0.9C178.7,51.6,178.7,52.1,178.7,52.7z"/>
		<path d="M188.3,54.1c0,1.8,1.1,2.9,2.9,2.9c0.9,0,1.6-0.2,1.9-0.4l-0.2-0.8c-0.4,0.2-0.9,0.3-1.6,0.3c-1.1,0-2-0.6-2-2h4.1
			c0-0.1,0-0.3,0-0.5c0-1.1-0.5-2.7-2.4-2.7C189.4,51,188.3,52.4,188.3,54.1z M191,51.7c1.2,0,1.5,1,1.5,1.7h-3.1
			C189.4,52.7,189.9,51.7,191,51.7z"/>
		<path d="M194.1,51.9h0.9v3.2c0,0.7,0.1,1.2,0.4,1.5c0.3,0.3,0.6,0.4,1.1,0.4c0.4,0,0.7-0.1,0.9-0.1l0-0.8c-0.1,0-0.3,0.1-0.6,0.1
			c-0.6,0-0.8-0.4-0.8-1.1v-3.1h1.5v-0.8H196v-1.7l-1,0.3v1.4h-0.9V51.9z"/>
		<path d="M198,58.4l0.8-0.1c0.3-0.6,0.9-1.9,1.1-2.9l-1.2,0.1C198.6,56.4,198.3,57.7,198,58.4z"/>
		<path d="M203.3,54.1c0,1.8,1.1,3,2.9,3c0.8,0,1.4-0.2,1.7-0.3l-0.2-0.8c-0.3,0.1-0.7,0.3-1.3,0.3c-1.2,0-2-0.8-2-2.2
			c0-1.2,0.7-2.2,2.1-2.2c0.6,0,1,0.1,1.2,0.3l0.2-0.8c-0.3-0.1-0.8-0.3-1.5-0.3C204.5,51,203.3,52.3,203.3,54.1z"/>
		<path d="M208.6,54.1c0,1.8,1.2,3,2.8,3c1.4,0,2.9-0.9,2.9-3.1c0-1.8-1.1-3-2.8-3C209.9,51,208.6,52.1,208.6,54.1z M213.2,54
			c0,1.3-0.8,2.3-1.8,2.3c-1,0-1.8-1-1.8-2.2c0-1.1,0.5-2.3,1.8-2.3C212.7,51.8,213.2,53,213.2,54z"/>
		<path d="M218.5,51c-1,0-1.6,0.5-1.9,1.1h0l-0.1-1h-0.9c0,0.5,0,1,0,1.6v4.2h1.1v-3.5c0-0.2,0-0.4,0.1-0.5c0.2-0.6,0.7-1.1,1.4-1.1
			c1,0,1.3,0.8,1.3,1.7v3.3h1.1v-3.5C220.6,51.5,219.3,51,218.5,51z"/>
		<path d="M222,52.7c0,0.7,0.5,1.3,1.5,1.6c0.8,0.3,1.1,0.6,1.1,1.1c0,0.5-0.4,0.9-1.1,0.9c-0.5,0-1.1-0.2-1.4-0.4l-0.3,0.8
			c0.4,0.2,1,0.4,1.6,0.4c1.4,0,2.2-0.7,2.2-1.7c0-0.9-0.5-1.4-1.5-1.8c-0.8-0.3-1.1-0.5-1.1-1c0-0.4,0.3-0.8,1-0.8
			c0.5,0,1,0.2,1.2,0.3l0.3-0.8c-0.3-0.2-0.8-0.4-1.4-0.4C222.8,51,222,51.8,222,52.7z"/>
		<path d="M229.3,51c-1.7,0-2.7,1.4-2.7,3.1s1.1,2.9,2.9,2.9c0.9,0,1.6-0.2,1.9-0.4l-0.2-0.8c-0.4,0.2-0.9,0.3-1.6,0.3
			c-1.1,0-2-0.6-2-2h4.1c0-0.1,0-0.3,0-0.5C231.7,52.7,231.2,51,229.3,51z M227.6,53.5c0.1-0.7,0.6-1.7,1.6-1.7c1.2,0,1.5,1,1.5,1.7
			H227.6z"/>
		<path d="M235.5,57c0.8,0,1.4-0.2,1.7-0.3l-0.2-0.8c-0.3,0.1-0.7,0.3-1.3,0.3c-1.2,0-2-0.8-2-2.2c0-1.2,0.7-2.2,2.1-2.2
			c0.6,0,1,0.1,1.2,0.3l0.2-0.8c-0.3-0.1-0.8-0.3-1.5-0.3c-1.9,0-3.1,1.3-3.1,3.1C232.6,55.9,233.8,57,235.5,57z"/>
		<polygon points="320.4,41.6 317,41.6 317,34.4 315.9,34.4 315.9,42.5 320.4,42.5 		"/>
		<path d="M323.8,42.7c1.4,0,2.9-0.9,2.9-3.1c0-1.8-1.1-3-2.8-3c-1.6,0-2.9,1.1-2.9,3.1C321,41.5,322.2,42.7,323.8,42.7z
			 M323.8,37.4c1.2,0,1.7,1.2,1.7,2.2c0,1.3-0.8,2.3-1.8,2.3c-1,0-1.8-1-1.8-2.2C322,38.5,322.6,37.4,323.8,37.4z"/>
		<path d="M328,42.5h1v-3.1c0-0.2,0-0.3,0-0.5c0.1-0.8,0.7-1.4,1.4-1.4c0.1,0,0.3,0,0.4,0v-1c-0.1,0-0.2,0-0.3,0
			c-0.7,0-1.3,0.5-1.6,1.3h0l0-1.1h-0.9c0,0.5,0,1.1,0,1.8V42.5z"/>
		<path d="M334.2,42.6c0.9,0,1.6-0.2,1.9-0.4l-0.2-0.8c-0.4,0.2-0.9,0.3-1.6,0.3c-1.1,0-2-0.6-2-2h4.1c0-0.1,0-0.3,0-0.5
			c0-1.1-0.5-2.7-2.4-2.7c-1.7,0-2.7,1.4-2.7,3.1C331.4,41.5,332.4,42.6,334.2,42.6z M334,37.3c1.2,0,1.5,1,1.5,1.7h-3.1
			C332.5,38.3,332.9,37.3,334,37.3z"/>
		<path d="M337.8,42.5h1V39c0-0.2,0-0.4,0.1-0.5c0.2-0.5,0.6-1.1,1.3-1.1c0.8,0,1.2,0.7,1.2,1.6v3.5h1v-3.6c0-0.2,0-0.4,0.1-0.5
			c0.2-0.5,0.6-1,1.2-1c0.9,0,1.3,0.7,1.3,1.8v3.3h1v-3.4c0-2-1.1-2.5-1.9-2.5c-0.6,0-0.9,0.1-1.3,0.4c-0.2,0.2-0.5,0.4-0.6,0.8h0
			c-0.3-0.7-0.9-1.2-1.6-1.2c-1,0-1.5,0.5-1.8,1.1h0l0-0.9h-0.9c0,0.5,0,1,0,1.6V42.5z"/>
		<rect x="350.3" y="36.7" width="1.1" height="5.8"/>
		<path d="M350.8,35.7c0.4,0,0.7-0.3,0.7-0.6c0-0.4-0.3-0.7-0.6-0.7c-0.4,0-0.7,0.3-0.7,0.7C350.2,35.4,350.5,35.7,350.8,35.7z"/>
		<path d="M353.2,44.9h1v-3.2h0c0.3,0.6,1,0.9,1.8,0.9c1.4,0,2.6-1,2.6-3.1c0-1.8-1.1-3-2.5-3c-0.9,0-1.6,0.4-2.1,1.1h0l0-1h-0.9
			c0,0.6,0,1.2,0,1.9V44.9z M354.2,39.2c0-0.1,0-0.3,0.1-0.4c0.2-0.8,0.9-1.3,1.6-1.3c1.1,0,1.7,1,1.7,2.2c0,1.3-0.6,2.2-1.8,2.2
			c-0.8,0-1.4-0.5-1.6-1.2c0-0.1,0-0.3,0-0.4V39.2z"/>
		<path d="M361.2,41.9c-0.5,0-1.1-0.2-1.4-0.4l-0.3,0.8c0.4,0.2,1,0.4,1.6,0.4c1.4,0,2.2-0.7,2.2-1.7c0-0.9-0.5-1.4-1.5-1.8
			c-0.8-0.3-1.1-0.5-1.1-1c0-0.4,0.3-0.8,1-0.8c0.5,0,1,0.2,1.2,0.3l0.3-0.8c-0.3-0.2-0.8-0.4-1.4-0.4c-1.2,0-2,0.8-2,1.7
			c0,0.7,0.5,1.3,1.5,1.6c0.8,0.3,1.1,0.6,1.1,1.1C362.4,41.5,362,41.9,361.2,41.9z"/>
		<path d="M366.7,42.7c1,0,1.6-0.6,1.9-1.1h0l0.1,0.9h0.9c0-0.5,0-1,0-1.6v-4.2h-1.1v3.6c0,0.2,0,0.4-0.1,0.5c-0.2,0.5-0.7,1-1.4,1
			c-1,0-1.3-0.7-1.3-1.8v-3.2h-1.1v3.4C364.7,42.1,365.8,42.7,366.7,42.7z"/>
		<path d="M371.3,42.5h1V39c0-0.2,0-0.4,0.1-0.5c0.2-0.5,0.6-1.1,1.3-1.1c0.8,0,1.2,0.7,1.2,1.6v3.5h1v-3.6c0-0.2,0-0.4,0.1-0.5
			c0.2-0.5,0.6-1,1.2-1c0.9,0,1.3,0.7,1.3,1.8v3.3h1v-3.4c0-2-1.1-2.5-1.9-2.5c-0.6,0-0.9,0.1-1.3,0.4c-0.2,0.2-0.5,0.4-0.6,0.8h0
			c-0.3-0.7-0.9-1.2-1.6-1.2c-1,0-1.5,0.5-1.8,1.1h0l0-0.9h-0.9c0,0.5,0,1,0,1.6V42.5z"/>
		<path d="M386,42.7c0.9,0,1.7-0.5,2-1.1h0l0,1h0.9c0-0.4,0-1,0-1.5v-7h-1.1v3.5h0c-0.3-0.5-0.9-0.9-1.8-0.9c-1.4,0-2.6,1.2-2.6,3.1
			C383.5,41.5,384.6,42.7,386,42.7z M386.3,37.4c0.8,0,1.4,0.6,1.5,1.2c0,0.1,0,0.3,0,0.4v1c0,0.2,0,0.3,0,0.5
			c-0.2,0.8-0.8,1.3-1.5,1.3c-1.1,0-1.7-1-1.7-2.1C384.5,38.4,385.2,37.4,386.3,37.4z"/>
		<path d="M393,42.7c1.4,0,2.9-0.9,2.9-3.1c0-1.8-1.1-3-2.8-3c-1.6,0-2.9,1.1-2.9,3.1C390.2,41.5,391.5,42.7,393,42.7z M393.1,37.4
			c1.2,0,1.7,1.2,1.7,2.2c0,1.3-0.8,2.3-1.8,2.3c-1,0-1.8-1-1.8-2.2C391.3,38.5,391.9,37.4,393.1,37.4z"/>
		<rect x="397.3" y="34" width="1.1" height="8.5"/>
		<path d="M402.4,42.7c1.4,0,2.9-0.9,2.9-3.1c0-1.8-1.1-3-2.8-3c-1.6,0-2.9,1.1-2.9,3.1C399.7,41.5,400.9,42.7,402.4,42.7z
			 M402.5,37.4c1.2,0,1.7,1.2,1.7,2.2c0,1.3-0.8,2.3-1.8,2.3c-1,0-1.8-1-1.8-2.2C400.7,38.5,401.3,37.4,402.5,37.4z"/>
		<path d="M406.7,42.5h1v-3.1c0-0.2,0-0.3,0-0.5c0.1-0.8,0.7-1.4,1.4-1.4c0.1,0,0.3,0,0.4,0v-1c-0.1,0-0.2,0-0.3,0
			c-0.7,0-1.3,0.5-1.6,1.3h0l0-1.1h-0.9c0,0.5,0,1.1,0,1.8V42.5z"/>
		<path d="M317.1,56.3c-0.5,0-1.1-0.2-1.4-0.4l-0.3,0.8c0.4,0.2,1,0.4,1.6,0.4c1.4,0,2.2-0.7,2.2-1.7c0-0.9-0.5-1.4-1.5-1.8
			c-0.8-0.3-1.1-0.5-1.1-1c0-0.4,0.3-0.8,1-0.8c0.5,0,1,0.2,1.2,0.3l0.3-0.8c-0.3-0.2-0.8-0.4-1.4-0.4c-1.2,0-2,0.8-2,1.7
			c0,0.7,0.5,1.3,1.5,1.6c0.8,0.3,1.1,0.6,1.1,1.1C318.3,55.9,317.9,56.3,317.1,56.3z"/>
		<path d="M321.1,50.1c0.4,0,0.7-0.3,0.7-0.6c0-0.4-0.3-0.7-0.6-0.7c-0.4,0-0.7,0.3-0.7,0.7C320.5,49.8,320.8,50.1,321.1,50.1z"/>
		<rect x="320.6" y="51.1" width="1.1" height="5.8"/>
		<path d="M324.7,49.4l-1,0.3v1.4h-0.9v0.8h0.9v3.2c0,0.7,0.1,1.2,0.4,1.5c0.3,0.3,0.6,0.4,1.1,0.4c0.4,0,0.7-0.1,0.9-0.1l0-0.8
			c-0.1,0-0.3,0.1-0.6,0.1c-0.6,0-0.8-0.4-0.8-1.1v-3.1h1.5v-0.8h-1.5V49.4z"/>
		<path d="M334,53.4c0-1.2-0.4-2.4-2.2-2.4c-0.7,0-1.4,0.2-1.9,0.5l0.2,0.7c0.4-0.3,1-0.4,1.5-0.4c1.2,0,1.3,0.9,1.3,1.3v0.1
			c-2.2,0-3.5,0.8-3.5,2.2c0,0.8,0.6,1.7,1.8,1.7c0.8,0,1.5-0.4,1.8-0.9h0l0.1,0.7h1c-0.1-0.4-0.1-0.9-0.1-1.4V53.4z M333,55
			c0,0.1,0,0.2-0.1,0.3c-0.2,0.5-0.6,1-1.4,1c-0.5,0-1-0.3-1-1c0-1.1,1.3-1.3,2.5-1.3V55z"/>
		<path d="M335.8,52.7v4.2h1v-3.5c0-0.2,0-0.4,0.1-0.5c0.2-0.5,0.6-1.1,1.3-1.1c0.8,0,1.2,0.7,1.2,1.6v3.5h1v-3.6
			c0-0.2,0-0.4,0.1-0.5c0.2-0.5,0.6-1,1.2-1c0.9,0,1.3,0.7,1.3,1.8v3.3h1v-3.4c0-2-1.1-2.5-1.9-2.5c-0.6,0-0.9,0.1-1.3,0.4
			c-0.2,0.2-0.5,0.4-0.6,0.8h0c-0.3-0.7-0.9-1.2-1.6-1.2c-1,0-1.5,0.5-1.8,1.1h0l0-0.9h-0.9C335.7,51.6,335.8,52.1,335.8,52.7z"/>
		<path d="M345.3,54.1c0,1.8,1.1,2.9,2.9,2.9c0.9,0,1.6-0.2,1.9-0.4l-0.2-0.8c-0.4,0.2-0.9,0.3-1.6,0.3c-1.1,0-2-0.6-2-2h4.1
			c0-0.1,0-0.3,0-0.5c0-1.1-0.5-2.7-2.4-2.7C346.4,51,345.3,52.4,345.3,54.1z M348,51.7c1.2,0,1.5,1,1.5,1.7h-3.1
			C346.4,52.7,346.9,51.7,348,51.7z"/>
		<path d="M351.1,51.9h0.9v3.2c0,0.7,0.1,1.2,0.4,1.5c0.3,0.3,0.6,0.4,1.1,0.4c0.4,0,0.7-0.1,0.9-0.1l0-0.8c-0.1,0-0.3,0.1-0.6,0.1
			c-0.6,0-0.8-0.4-0.8-1.1v-3.1h1.5v-0.8H353v-1.7l-1,0.3v1.4h-0.9V51.9z"/>
		<path d="M355,58.4l0.8-0.1c0.3-0.6,0.9-1.9,1.1-2.9l-1.2,0.1C355.6,56.4,355.3,57.7,355,58.4z"/>
		<path d="M360.3,54.1c0,1.8,1.1,3,2.9,3c0.8,0,1.4-0.2,1.7-0.3l-0.2-0.8c-0.3,0.1-0.7,0.3-1.3,0.3c-1.2,0-2-0.8-2-2.2
			c0-1.2,0.7-2.2,2.1-2.2c0.6,0,1,0.1,1.2,0.3l0.2-0.8c-0.3-0.1-0.8-0.3-1.5-0.3C361.5,51,360.3,52.3,360.3,54.1z"/>
		<path d="M365.6,54.1c0,1.8,1.2,3,2.8,3c1.4,0,2.9-0.9,2.9-3.1c0-1.8-1.1-3-2.8-3C366.9,51,365.6,52.1,365.6,54.1z M370.2,54
			c0,1.3-0.8,2.3-1.8,2.3c-1,0-1.8-1-1.8-2.2c0-1.1,0.5-2.3,1.8-2.3S370.2,53,370.2,54z"/>
		<path d="M375.5,51c-1,0-1.6,0.5-1.9,1.1h0l-0.1-1h-0.9c0,0.5,0,1,0,1.6v4.2h1.1v-3.5c0-0.2,0-0.4,0.1-0.5c0.2-0.6,0.7-1.1,1.4-1.1
			c1,0,1.3,0.8,1.3,1.7v3.3h1.1v-3.5C377.6,51.5,376.3,51,375.5,51z"/>
		<path d="M379,52.7c0,0.7,0.5,1.3,1.5,1.6c0.8,0.3,1.1,0.6,1.1,1.1c0,0.5-0.4,0.9-1.1,0.9c-0.5,0-1.1-0.2-1.4-0.4l-0.3,0.8
			c0.4,0.2,1,0.4,1.6,0.4c1.4,0,2.2-0.7,2.2-1.7c0-0.9-0.5-1.4-1.5-1.8c-0.8-0.3-1.1-0.5-1.1-1c0-0.4,0.3-0.8,1-0.8
			c0.5,0,1,0.2,1.2,0.3l0.3-0.8c-0.3-0.2-0.8-0.4-1.4-0.4C379.8,51,379,51.8,379,52.7z"/>
		<path d="M386.3,51c-1.7,0-2.7,1.4-2.7,3.1s1.1,2.9,2.9,2.9c0.9,0,1.6-0.2,1.9-0.4l-0.2-0.8c-0.4,0.2-0.9,0.3-1.6,0.3
			c-1.1,0-2-0.6-2-2h4.1c0-0.1,0-0.3,0-0.5C388.7,52.7,388.2,51,386.3,51z M384.6,53.5c0.1-0.7,0.6-1.7,1.6-1.7c1.2,0,1.5,1,1.5,1.7
			H384.6z"/>
		<path d="M392.5,57c0.8,0,1.4-0.2,1.7-0.3l-0.2-0.8c-0.3,0.1-0.7,0.3-1.3,0.3c-1.2,0-2-0.8-2-2.2c0-1.2,0.7-2.2,2.1-2.2
			c0.6,0,1,0.1,1.2,0.3l0.2-0.8c-0.3-0.1-0.8-0.3-1.5-0.3c-1.9,0-3.1,1.3-3.1,3.1C389.6,55.9,390.8,57,392.5,57z"/>
		<polygon points="462,41.6 458.6,41.6 458.6,34.4 457.5,34.4 457.5,42.5 462,42.5 		"/>
		<path d="M465.4,42.7c1.4,0,2.9-0.9,2.9-3.1c0-1.8-1.1-3-2.8-3c-1.6,0-2.9,1.1-2.9,3.1C462.6,41.5,463.8,42.7,465.4,42.7z
			 M465.4,37.4c1.2,0,1.7,1.2,1.7,2.2c0,1.3-0.8,2.3-1.8,2.3c-1,0-1.8-1-1.8-2.2C463.6,38.5,464.2,37.4,465.4,37.4z"/>
		<path d="M469.6,42.5h1v-3.1c0-0.2,0-0.3,0-0.5c0.1-0.8,0.7-1.4,1.4-1.4c0.1,0,0.3,0,0.4,0v-1c-0.1,0-0.2,0-0.3,0
			c-0.7,0-1.3,0.5-1.6,1.3h0l0-1.1h-0.9c0,0.5,0,1.1,0,1.8V42.5z"/>
		<path d="M475.8,42.6c0.9,0,1.6-0.2,1.9-0.4l-0.2-0.8c-0.4,0.2-0.9,0.3-1.6,0.3c-1.1,0-2-0.6-2-2h4.1c0-0.1,0-0.3,0-0.5
			c0-1.1-0.5-2.7-2.4-2.7c-1.7,0-2.7,1.4-2.7,3.1C473,41.5,474,42.6,475.8,42.6z M475.6,37.3c1.2,0,1.5,1,1.5,1.7H474
			C474.1,38.3,474.5,37.3,475.6,37.3z"/>
		<path d="M479.4,42.5h1V39c0-0.2,0-0.4,0.1-0.5c0.2-0.5,0.6-1.1,1.3-1.1c0.8,0,1.2,0.7,1.2,1.6v3.5h1v-3.6c0-0.2,0-0.4,0.1-0.5
			c0.2-0.5,0.6-1,1.2-1c0.9,0,1.3,0.7,1.3,1.8v3.3h1v-3.4c0-2-1.1-2.5-1.9-2.5c-0.6,0-0.9,0.1-1.3,0.4c-0.2,0.2-0.5,0.4-0.6,0.8h0
			c-0.3-0.7-0.9-1.2-1.6-1.2c-1,0-1.5,0.5-1.8,1.1h0l0-0.9h-0.9c0,0.5,0,1,0,1.6V42.5z"/>
		<rect x="492" y="36.7" width="1.1" height="5.8"/>
		<path d="M492.5,35.7c0.4,0,0.7-0.3,0.7-0.6c0-0.4-0.3-0.7-0.6-0.7c-0.4,0-0.7,0.3-0.7,0.7C491.8,35.4,492.1,35.7,492.5,35.7z"/>
		<path d="M494.8,44.9h1v-3.2h0c0.3,0.6,1,0.9,1.8,0.9c1.4,0,2.6-1,2.6-3.1c0-1.8-1.1-3-2.5-3c-0.9,0-1.6,0.4-2.1,1.1h0l0-1h-0.9
			c0,0.6,0,1.2,0,1.9V44.9z M495.8,39.2c0-0.1,0-0.3,0.1-0.4c0.2-0.8,0.9-1.3,1.6-1.3c1.1,0,1.7,1,1.7,2.2c0,1.3-0.6,2.2-1.8,2.2
			c-0.8,0-1.4-0.5-1.6-1.2c0-0.1,0-0.3,0-0.4V39.2z"/>
		<path d="M502.8,41.9c-0.5,0-1.1-0.2-1.4-0.4l-0.3,0.8c0.4,0.2,1,0.4,1.6,0.4c1.4,0,2.2-0.7,2.2-1.7c0-0.9-0.5-1.4-1.5-1.8
			c-0.8-0.3-1.1-0.5-1.1-1c0-0.4,0.3-0.8,1-0.8c0.5,0,1,0.2,1.2,0.3l0.3-0.8c-0.3-0.2-0.8-0.4-1.4-0.4c-1.2,0-2,0.8-2,1.7
			c0,0.7,0.5,1.3,1.5,1.6c0.8,0.3,1.1,0.6,1.1,1.1C504,41.5,503.6,41.9,502.8,41.9z"/>
		<path d="M508.3,42.7c1,0,1.6-0.6,1.9-1.1h0l0.1,0.9h0.9c0-0.5,0-1,0-1.6v-4.2h-1.1v3.6c0,0.2,0,0.4-0.1,0.5c-0.2,0.5-0.7,1-1.4,1
			c-1,0-1.3-0.7-1.3-1.8v-3.2h-1.1v3.4C506.3,42.1,507.4,42.7,508.3,42.7z"/>
		<path d="M513,42.5h1V39c0-0.2,0-0.4,0.1-0.5c0.2-0.5,0.6-1.1,1.3-1.1c0.8,0,1.2,0.7,1.2,1.6v3.5h1v-3.6c0-0.2,0-0.4,0.1-0.5
			c0.2-0.5,0.6-1,1.2-1c0.9,0,1.3,0.7,1.3,1.8v3.3h1v-3.4c0-2-1.1-2.5-1.9-2.5c-0.6,0-0.9,0.1-1.3,0.4c-0.2,0.2-0.5,0.4-0.6,0.8h0
			c-0.3-0.7-0.9-1.2-1.6-1.2c-1,0-1.5,0.5-1.8,1.1h0l0-0.9h-0.9c0,0.5,0,1,0,1.6V42.5z"/>
		<path d="M527.6,42.7c0.9,0,1.7-0.5,2-1.1h0l0,1h0.9c0-0.4,0-1,0-1.5v-7h-1.1v3.5h0c-0.3-0.5-0.9-0.9-1.8-0.9
			c-1.4,0-2.6,1.2-2.6,3.1C525.1,41.5,526.2,42.7,527.6,42.7z M527.9,37.4c0.8,0,1.4,0.6,1.5,1.2c0,0.1,0,0.3,0,0.4v1
			c0,0.2,0,0.3,0,0.5c-0.2,0.8-0.8,1.3-1.5,1.3c-1.1,0-1.7-1-1.7-2.1C526.2,38.4,526.8,37.4,527.9,37.4z"/>
		<path d="M534.6,42.7c1.4,0,2.9-0.9,2.9-3.1c0-1.8-1.1-3-2.8-3c-1.6,0-2.9,1.1-2.9,3.1C531.9,41.5,533.1,42.7,534.6,42.7z
			 M534.7,37.4c1.2,0,1.7,1.2,1.7,2.2c0,1.3-0.8,2.3-1.8,2.3c-1,0-1.8-1-1.8-2.2C532.9,38.5,533.5,37.4,534.7,37.4z"/>
		<rect x="538.9" y="34" width="1.1" height="8.5"/>
		<path d="M544.1,42.7c1.4,0,2.9-0.9,2.9-3.1c0-1.8-1.1-3-2.8-3c-1.6,0-2.9,1.1-2.9,3.1C541.3,41.5,542.5,42.7,544.1,42.7z
			 M544.1,37.4c1.2,0,1.7,1.2,1.7,2.2c0,1.3-0.8,2.3-1.8,2.3c-1,0-1.8-1-1.8-2.2C542.3,38.5,542.9,37.4,544.1,37.4z"/>
		<path d="M548.3,42.5h1v-3.1c0-0.2,0-0.3,0-0.5c0.1-0.8,0.7-1.4,1.4-1.4c0.1,0,0.3,0,0.4,0v-1c-0.1,0-0.2,0-0.3,0
			c-0.7,0-1.3,0.5-1.6,1.3h0l0-1.1h-0.9c0,0.5,0,1.1,0,1.8V42.5z"/>
		<path d="M458.7,56.3c-0.5,0-1.1-0.2-1.4-0.4l-0.3,0.8c0.4,0.2,1,0.4,1.6,0.4c1.4,0,2.2-0.7,2.2-1.7c0-0.9-0.5-1.4-1.5-1.8
			c-0.8-0.3-1.1-0.5-1.1-1c0-0.4,0.3-0.8,1-0.8c0.5,0,1,0.2,1.2,0.3l0.3-0.8c-0.3-0.2-0.8-0.4-1.4-0.4c-1.2,0-2,0.8-2,1.7
			c0,0.7,0.5,1.3,1.5,1.6c0.8,0.3,1.1,0.6,1.1,1.1C459.9,55.9,459.5,56.3,458.7,56.3z"/>
		<rect x="462.3" y="51.1" width="1.1" height="5.8"/>
		<path d="M462.8,50.1c0.4,0,0.7-0.3,0.7-0.6c0-0.4-0.3-0.7-0.6-0.7c-0.4,0-0.7,0.3-0.7,0.7C462.1,49.8,462.4,50.1,462.8,50.1z"/>
		<path d="M466.3,49.4l-1,0.3v1.4h-0.9v0.8h0.9v3.2c0,0.7,0.1,1.2,0.4,1.5c0.3,0.3,0.6,0.4,1.1,0.4c0.4,0,0.7-0.1,0.9-0.1l0-0.8
			c-0.1,0-0.3,0.1-0.6,0.1c-0.6,0-0.8-0.4-0.8-1.1v-3.1h1.5v-0.8h-1.5V49.4z"/>
		<path d="M475.7,53.4c0-1.2-0.4-2.4-2.2-2.4c-0.7,0-1.4,0.2-1.9,0.5l0.2,0.7c0.4-0.3,1-0.4,1.5-0.4c1.2,0,1.3,0.9,1.3,1.3v0.1
			c-2.2,0-3.5,0.8-3.5,2.2c0,0.8,0.6,1.7,1.8,1.7c0.8,0,1.5-0.4,1.8-0.9h0l0.1,0.7h1c-0.1-0.4-0.1-0.9-0.1-1.4V53.4z M474.6,55
			c0,0.1,0,0.2-0.1,0.3c-0.2,0.5-0.6,1-1.4,1c-0.5,0-1-0.3-1-1c0-1.1,1.3-1.3,2.5-1.3V55z"/>
		<path d="M477.4,52.7v4.2h1v-3.5c0-0.2,0-0.4,0.1-0.5c0.2-0.5,0.6-1.1,1.3-1.1c0.8,0,1.2,0.7,1.2,1.6v3.5h1v-3.6
			c0-0.2,0-0.4,0.1-0.5c0.2-0.5,0.6-1,1.2-1c0.9,0,1.3,0.7,1.3,1.8v3.3h1v-3.4c0-2-1.1-2.5-1.9-2.5c-0.6,0-0.9,0.1-1.3,0.4
			c-0.2,0.2-0.5,0.4-0.6,0.8h0c-0.3-0.7-0.9-1.2-1.6-1.2c-1,0-1.5,0.5-1.8,1.1h0l0-0.9h-0.9C477.3,51.6,477.4,52.1,477.4,52.7z"/>
		<path d="M486.9,54.1c0,1.8,1.1,2.9,2.9,2.9c0.9,0,1.6-0.2,1.9-0.4l-0.2-0.8c-0.4,0.2-0.9,0.3-1.6,0.3c-1.1,0-2-0.6-2-2h4.1
			c0-0.1,0-0.3,0-0.5c0-1.1-0.5-2.7-2.4-2.7C488,51,486.9,52.4,486.9,54.1z M489.6,51.7c1.2,0,1.5,1,1.5,1.7H488
			C488.1,52.7,488.5,51.7,489.6,51.7z"/>
		<path d="M492.7,51.9h0.9v3.2c0,0.7,0.1,1.2,0.4,1.5c0.3,0.3,0.6,0.4,1.1,0.4c0.4,0,0.7-0.1,0.9-0.1l0-0.8c-0.1,0-0.3,0.1-0.6,0.1
			c-0.6,0-0.8-0.4-0.8-1.1v-3.1h1.5v-0.8h-1.5v-1.7l-1,0.3v1.4h-0.9V51.9z"/>
		<path d="M496.6,58.4l0.8-0.1c0.3-0.6,0.9-1.9,1.1-2.9l-1.2,0.1C497.2,56.4,496.9,57.7,496.6,58.4z"/>
		<path d="M501.9,54.1c0,1.8,1.1,3,2.9,3c0.8,0,1.4-0.2,1.7-0.3l-0.2-0.8c-0.3,0.1-0.7,0.3-1.3,0.3c-1.2,0-2-0.8-2-2.2
			c0-1.2,0.7-2.2,2.1-2.2c0.6,0,1,0.1,1.2,0.3l0.2-0.8c-0.3-0.1-0.8-0.3-1.5-0.3C503.1,51,501.9,52.3,501.9,54.1z"/>
		<path d="M507.2,54.1c0,1.8,1.2,3,2.8,3c1.4,0,2.9-0.9,2.9-3.1c0-1.8-1.1-3-2.8-3C508.5,51,507.2,52.1,507.2,54.1z M511.8,54
			c0,1.3-0.8,2.3-1.8,2.3c-1,0-1.8-1-1.8-2.2c0-1.1,0.5-2.3,1.8-2.3C511.3,51.8,511.8,53,511.8,54z"/>
		<path d="M517.1,51c-1,0-1.6,0.5-1.9,1.1h0l-0.1-1h-0.9c0,0.5,0,1,0,1.6v4.2h1.1v-3.5c0-0.2,0-0.4,0.1-0.5c0.2-0.6,0.7-1.1,1.4-1.1
			c1,0,1.3,0.8,1.3,1.7v3.3h1.1v-3.5C519.2,51.5,517.9,51,517.1,51z"/>
		<path d="M520.7,52.7c0,0.7,0.5,1.3,1.5,1.6c0.8,0.3,1.1,0.6,1.1,1.1c0,0.5-0.4,0.9-1.1,0.9c-0.5,0-1.1-0.2-1.4-0.4l-0.3,0.8
			c0.4,0.2,1,0.4,1.6,0.4c1.4,0,2.2-0.7,2.2-1.7c0-0.9-0.5-1.4-1.5-1.8c-0.8-0.3-1.1-0.5-1.1-1c0-0.4,0.3-0.8,1-0.8
			c0.5,0,1,0.2,1.2,0.3l0.3-0.8c-0.3-0.2-0.8-0.4-1.4-0.4C521.4,51,520.7,51.8,520.7,52.7z"/>
		<path d="M528,51c-1.7,0-2.7,1.4-2.7,3.1s1.1,2.9,2.9,2.9c0.9,0,1.6-0.2,1.9-0.4l-0.2-0.8c-0.4,0.2-0.9,0.3-1.6,0.3
			c-1.1,0-2-0.6-2-2h4.1c0-0.1,0-0.3,0-0.5C530.3,52.7,529.8,51,528,51z M526.2,53.5c0.1-0.7,0.6-1.7,1.6-1.7c1.2,0,1.5,1,1.5,1.7
			H526.2z"/>
		<path d="M534.1,57c0.8,0,1.4-0.2,1.7-0.3l-0.2-0.8c-0.3,0.1-0.7,0.3-1.3,0.3c-1.2,0-2-0.8-2-2.2c0-1.2,0.7-2.2,2.1-2.2
			c0.6,0,1,0.1,1.2,0.3l0.2-0.8c-0.3-0.1-0.8-0.3-1.5-0.3c-1.9,0-3.1,1.3-3.1,3.1C531.2,55.9,532.4,57,534.1,57z"/>
	</g>
	<rect x="31" y="84.5" fill="none" width="94" height="25"/>
	<text id="Sample1" transform="matrix(1 0 0 1 31 93.02)">Sample</text>
	<rect x="145.4" y="84.5" fill="none" width="134.1" height="25"/>
	<text id="Sample2" transform="matrix(1 0 0 1 145.4261 93.02)">Sample</text>
	<rect x="298" y="84.5" fill="none" width="134.1" height="25"/>
	<text id="Sample3" transform="matrix(1 0 0 1 297.9799 93.02)">Sample</text>
	<rect x="449.6" y="84.5" fill="none" width="115.9" height="25"/>
	<text id="Sample4" transform="matrix(1 0 0 1 449.6467 93.02)">Sample</text>
	<rect x="449.6" y="126" fill="none" width="115.9" height="33.5"/>
	<text id="Sample5" transform="matrix(1 0 0 1 449.6467 134.52)">Sample</text>
	<rect x="449.6" y="174" fill="none" width="115.9" height="33.5"/>
	<text id="Sample6" transform="matrix(1 0 0 1 449.6467 182.4758)">Sample</text>
	<rect x="449.6" y="219.4" fill="none" width="115.9" height="33.5"/>
	<text id="Sample7" transform="matrix(1 0 0 1 449.6467 227.9004)">Sample</text>
	<rect x="298" y="126" fill="none" width="135" height="33.5"/>
	<text id="Sample8" transform="matrix(1 0 0 1 297.9801 134.52)">Sample</text>
	<rect x="298" y="174" fill="none" width="135" height="33.5"/>
	<text id="Sample9" transform="matrix(1 0 0 1 297.9801 182.4758)">Sample</text>
	<rect x="298" y="219.4" fill="none" width="135" height="33.5"/>
	<text id="Sample10" transform="matrix(1 0 0 1 297.9801 227.9004)">Sample</text>
	<rect x="145" y="126" fill="none" width="135" height="33.5"/>
	<text id="Sample11" transform="matrix(1 0 0 1 144.9525 134.52)">Sample</text>
	<rect x="145" y="174" fill="none" width="135" height="33.5"/>
	<text id="Sample12" transform="matrix(1 0 0 1 144.9525 182.4758)">Sample</text>
	<rect x="145" y="219.4" fill="none" width="135" height="33.5"/>
	<text id="Sample13" transform="matrix(1 0 0 1 144.9525 227.9004)">Sample</text>
</g>
<g id="id1">
	<rect x="30.4" y="219.4" fill="none" width="97.1" height="33.5"/>
	<text id="Sample16" transform="matrix(1 0 0 1 30.4478 227.9004)">Sample</text>
</g>
<g id="id2">
	<rect x="30.4" y="174" fill="none" width="97.1" height="33.5"/>
	<text id="Sample15" transform="matrix(1 0 0 1 30.4478 182.4758)">Sample</text>
</g>
<g id="id3">
	<rect x="30.4" y="126" fill="none" width="97.1" height="33.5"/>
	<text id="Sample14" transform="matrix(1 0 0 1 30.4478 134.52)">Sample</text>
</g>
</svg>
